<svg width="70" height="78" viewBox="0 0 70 78" fill="none" xmlns="http://www.w3.org/2000/svg">
<g clip-path="url(#clip0_43_1876)">
<path fill-rule="evenodd" clip-rule="evenodd" d="M24.7783 1.04679H36.9624C38.8434 1.04679 41.2737 0.742186 42.9373 1.16394C43.9889 1.43065 44.8901 1.97723 45.6319 2.5698C47.5828 4.12849 48.1633 8.05218 47.6821 11.9422L47.3306 13.8167L47.7992 14.5196C47.8383 15.0663 47.8773 15.613 47.9164 16.1598L48.5022 16.9213C48.9457 17.6671 49.2041 18.6266 49.3808 19.6158C49.7766 21.8313 48.9434 24.035 48.3264 25.5321C46.4567 30.069 43.4511 34.0941 39.8327 36.8962C38.7396 37.7427 35.1904 40.5297 33.272 40.1765C30.8927 39.7384 29.0909 38.2573 27.4729 37.0133C23.4797 33.9566 20.4003 29.8642 18.5691 25.1807C17.944 23.582 17.1984 20.9745 17.8076 18.7372C18.0841 17.7215 18.7654 17.0182 19.0963 16.2183V15.0468C19.2096 14.5039 19.4876 14.1469 19.7406 13.7581C19.4844 12.9159 19.3892 11.9795 19.3892 10.7706C19.3892 6.02224 19.6575 2.98101 22.9038 1.57399L24.7783 1.04679ZM21.8494 12.2937H45.1632C45.3746 9.41135 45.5725 5.59966 43.9331 4.32712C42.7517 3.41009 40.8795 3.50704 38.7197 3.50704H28.4101C26.395 3.50704 24.3879 3.3606 23.2553 4.20997C21.4335 5.5764 21.8211 9.09843 21.8494 12.2937ZM26.5356 25.6493C26.5094 24.2137 26.5576 23.0788 27.2971 22.4275C27.9643 21.84 29.1294 21.9003 30.4017 21.9003C32.678 21.9003 38.3831 21.4077 39.657 22.369C40.4783 22.9887 40.5032 24.1635 40.477 25.6493H45.6904C46.1879 23.9185 47.5351 21.8049 46.862 19.3229C46.609 18.3902 45.9578 17.8688 45.6319 17.097C45.2932 16.2948 45.5671 15.2891 44.9875 14.7539H21.908C21.5728 15.4077 21.7791 16.096 21.498 16.8627L20.385 18.6786C19.7025 20.3375 20.2264 22.5793 20.7365 24.0091L21.3808 25.6493H26.5356ZM66.544 17.507C68.7858 17.5108 70.5478 23.0291 69.7658 25.5907C68.8824 28.4844 66.2329 29.6384 65.1381 32.1514C64.8025 32.9219 64.3667 34.3102 64.5524 35.4317L64.9038 36.7204C64.6889 37.1695 64.4741 37.6186 64.2595 38.0677C63.8617 38.7388 61.3001 42.8639 61.4478 43.1639C61.8771 43.7888 62.3067 44.4136 62.7365 45.0384C63.5524 46.3381 64.2554 47.8375 64.8453 49.3146C66.93 54.5332 67.7735 63.2519 66.4268 70.051C66.0859 71.7708 65.7017 77.2718 64.4938 77.7246C48.4842 77.7439 32.4731 77.7635 16.4603 77.7832H5.68207C4.33719 77.7832 2.45258 78.048 1.93311 77.1974C1.75738 76.3773 1.58165 75.5573 1.40592 74.7372C0.907424 72.6061 0.705742 70.2408 0.292947 67.9422C0.23437 66.9663 0.175792 65.99 0.117215 65.0133C-0.514308 61.149 0.199223 56.4503 0.995876 53.3564C3.04907 45.3803 6.76575 40.527 13.0628 36.8376C14.8715 35.7779 17.2277 34.7577 19.6821 34.4359C20.7826 34.2916 22.5479 37.7066 23.1381 38.4777C25.3553 41.3739 28.2085 43.6839 32.5691 44.4526C37.6764 45.353 42.3412 40.6312 44.226 38.0677C44.769 37.3293 45.9694 34.8781 46.6863 34.5531C47.9168 33.9951 51.8381 35.755 52.8369 36.1932L54.7114 37.1305C57.4252 32.5229 60.1393 27.9148 62.8536 23.3062C63.8459 21.6464 65.014 18.5146 66.544 17.507ZM66.7783 21.256C64.5137 25.1999 62.2487 29.1441 59.9833 33.0886H60.1005C60.7841 33.4987 61.4675 33.9087 62.1507 34.3188C62.573 29.8493 65.5207 28.8094 67.0126 25.6493C67.5386 24.5347 67.5258 22.1191 66.7783 21.256ZM28.9959 24.3606C28.9704 25.62 28.7046 27.9405 29.2888 28.6953C29.7105 29.2401 36.7038 29.49 37.4896 28.9296C38.3413 28.3222 38.0454 25.7909 38.0168 24.3606H28.9959ZM26.5942 28.1096L22.7867 28.1681L22.9038 28.2853C23.9713 30.935 28.1238 34.6292 30.4603 36.1932C31.1281 36.6402 32.561 37.8596 33.6235 37.7162C36.9906 37.262 42.8177 30.8242 44.2846 28.1096H40.477C40.3013 29.4927 39.63 30.5129 38.6611 31.097C37.6185 31.7258 35.7055 31.5656 34.0335 31.5656C30.2008 31.5656 26.6791 31.7828 26.5942 28.1096ZM58.6946 35.1974L43.3473 60.3271C43.3668 60.3664 43.3864 60.405 43.4059 60.4443C44.2389 60.7688 46.784 62.6573 47.3306 62.4945L61.975 37.0133C60.8819 36.408 59.7885 35.8027 58.6946 35.1974ZM18.9206 37.0719L16.6946 37.7748C15.121 38.3999 13.5578 39.1936 12.2427 40.1179C7.603 43.3792 4.80218 48.1174 3.22182 54.4694C2.7925 56.195 2.88634 57.9069 2.57747 59.8585C2.29717 61.6293 2.28235 64.0702 2.57747 65.892L3.16324 71.0468L3.98332 75.3229C23.6829 75.3036 43.3844 75.2841 63.0879 75.2644C63.283 74.2685 63.4783 73.2727 63.6737 72.2769C63.9273 70.2853 64.1812 68.2936 64.4352 66.302C65.3484 60.439 63.9332 53.6903 62.3264 49.7832C61.7371 48.3511 61.0881 46.3896 59.9833 45.4485H59.9248L51.1967 60.5614C50.6128 61.5432 49.0062 65.1732 48.0921 65.4819C47.3749 65.7239 46.6745 65.1633 46.2176 64.8962C44.3629 63.8031 42.5079 62.7097 40.6528 61.6158C39.8386 60.5796 42.5649 56.813 43.113 55.9338L53.3641 39.2393C51.6142 38.5721 50.0218 37.2583 47.7992 37.0719C44.8953 42.5899 37.1579 49.6375 28.4101 45.8585C24.3588 44.1084 21.448 40.6606 19.2134 37.0719H18.9206Z" fill="#669ABD"/>
</g>
<defs>
<clipPath id="clip0_43_1876">
<rect width="70" height="76.8536" fill="white" transform="translate(0 0.988281)"/>
</clipPath>
</defs>
</svg>
