<svg width="30" height="30" viewBox="0 0 30 30" fill="none" xmlns="http://www.w3.org/2000/svg">
<path d="M27.1875 1.875H2.8125C2.29431 1.875 1.875 2.29431 1.875 2.8125V21.5625C1.875 22.0807 2.29431 22.5 2.8125 22.5H11.25V26.25H8.4375C7.91931 26.25 7.5 26.6693 7.5 27.1875C7.5 27.7057 7.91931 28.125 8.4375 28.125H12.1875H17.8125H21.5625C22.0807 28.125 22.5 27.7057 22.5 27.1875C22.5 26.6693 22.0807 26.25 21.5625 26.25H18.75V22.5H27.1875C27.7057 22.5 28.125 22.0807 28.125 21.5625V2.8125C28.125 2.29431 27.7057 1.875 27.1875 1.875ZM16.875 26.25H13.125V22.5H16.875V26.25ZM26.25 20.625H17.8125H12.1875H3.75V3.75H26.25V20.625Z" fill="#669ABD"/>
<path d="M6.5625 13.125H10.3125C10.6073 13.125 10.8856 12.9858 11.0623 12.7496L12.8485 10.3693L15.0595 16.2671C15.1712 16.5655 15.4276 16.7862 15.7388 16.8539C15.8047 16.8677 15.8716 16.875 15.9375 16.875C16.1838 16.875 16.4227 16.7779 16.6003 16.6003L20.0757 13.125H23.4375C23.9557 13.125 24.375 12.7057 24.375 12.1875C24.375 11.6693 23.9557 11.25 23.4375 11.25H19.6875C19.4385 11.25 19.2004 11.3489 19.0247 11.5247L16.3037 14.2447L14.003 8.10791C13.8821 7.78747 13.5974 7.55767 13.2578 7.50915C12.9199 7.46063 12.5803 7.60162 12.3752 7.87536L9.84375 11.25H6.5625C6.04431 11.25 5.625 11.6693 5.625 12.1875C5.625 12.7057 6.04431 13.125 6.5625 13.125Z" fill="#669ABD"/>
</svg>
