<svg width="70" height="71" viewBox="0 0 70 71" fill="none" xmlns="http://www.w3.org/2000/svg">
<path d="M67.9587 35.9882C67.9587 39.1965 63.5837 41.8215 62.7087 45.0299C61.8337 48.2382 63.5837 52.9049 61.8337 55.2382C59.792 57.8632 54.8337 57.5715 52.2087 59.3215C49.5837 61.0715 48.417 66.0299 45.2087 67.1965C42.292 68.0715 38.5003 64.8632 35.0003 64.8632C31.792 64.8632 28.0003 68.0715 24.792 67.1965C21.5837 66.3215 20.417 61.3632 17.792 59.3215C15.167 57.2799 10.2087 57.8632 8.16699 55.2382C6.41699 52.6132 8.16699 47.9465 7.29199 45.0299C6.41699 42.1132 2.04199 39.4882 2.04199 35.9882C2.04199 32.7799 6.41699 30.1549 7.29199 26.9465C8.16699 23.7382 6.41699 19.0715 8.16699 16.7382C10.5003 14.1132 15.4587 14.4049 18.0837 12.6549C20.7087 10.9049 21.8753 5.94653 25.0837 4.77986C28.0003 3.90486 31.792 7.1132 35.292 7.1132C38.5003 7.1132 42.292 3.90486 45.5003 4.77986C48.7087 5.65486 49.8753 10.6132 52.5003 12.6549C55.1253 14.6965 60.0837 14.1132 62.1253 16.7382C63.8753 19.3632 62.1253 24.0299 63.0003 26.9465C63.5837 30.1549 67.9587 32.7799 67.9587 35.9882Z" stroke="#669ABD" stroke-width="3" stroke-miterlimit="10" stroke-linecap="round" stroke-linejoin="round"/>
<path d="M23.042 36.2799L30.917 43.8633L46.9587 28.1133" stroke="#669ABD" stroke-width="3" stroke-miterlimit="10" stroke-linecap="round" stroke-linejoin="round"/>
</svg>
