<svg width="36" height="36" viewBox="0 0 36 36" fill="none" xmlns="http://www.w3.org/2000/svg">
<g clip-path="url(#clip0_58_857)">
<path fill-rule="evenodd" clip-rule="evenodd" d="M14.6251 24.75C15.2464 24.75 15.7501 25.2537 15.7501 25.875V33.1939L15.75 33.2004C15.7492 33.2728 15.7629 33.3446 15.7902 33.4117C15.8175 33.4788 15.858 33.5397 15.9092 33.5909C15.9604 33.6421 16.0213 33.6826 16.0884 33.7099C16.1555 33.7372 16.2273 33.7509 16.2997 33.7501L16.3126 33.7499L16.3255 33.7501C16.3979 33.7509 16.4698 33.7372 16.5368 33.7099C16.6039 33.6826 16.6648 33.6421 16.716 33.5909C16.7672 33.5397 16.8077 33.4788 16.835 33.4117C16.8624 33.3446 16.876 33.2728 16.8752 33.2004C16.8681 32.5791 17.366 32.0697 17.9872 32.0626C18.6085 32.0555 19.1179 32.5533 19.125 33.1746C19.1293 33.5468 19.0591 33.9161 18.9186 34.2608C18.7782 34.6055 18.5702 34.9187 18.307 35.1819C18.0438 35.4451 17.7307 35.6531 17.3859 35.7935C17.0452 35.9324 16.6805 36.0026 16.3126 36C15.9448 36.0026 15.58 35.9324 15.2393 35.7935C14.8946 35.6531 14.5814 35.4451 14.3182 35.1819C14.055 34.9187 13.847 34.6055 13.7066 34.2608C13.567 33.9184 13.4968 33.5516 13.5001 33.1819V25.875C13.5001 25.2537 14.0038 24.75 14.6251 24.75Z" fill="#669ABD"/>
<path fill-rule="evenodd" clip-rule="evenodd" d="M18.0001 24.75C18.6214 24.75 19.1251 25.2537 19.1251 25.875V33.1939L19.125 33.2004C19.1242 33.2728 19.1379 33.3446 19.1652 33.4117C19.1925 33.4788 19.233 33.5397 19.2842 33.5909C19.3354 33.6421 19.3963 33.6826 19.4634 33.7099C19.5305 33.7372 19.6023 33.7509 19.6747 33.7501L19.6876 33.7499L19.7005 33.7501C19.7729 33.7509 19.8448 33.7372 19.9118 33.7099C19.9789 33.6826 20.0398 33.6421 20.091 33.5909C20.1422 33.5397 20.1827 33.4788 20.21 33.4117C20.2374 33.3446 20.251 33.2728 20.2502 33.2004L20.2501 33.1939V25.875C20.2501 25.2537 20.7538 24.75 21.3751 24.75C21.9964 24.75 22.5001 25.2537 22.5001 25.875V33.1819C22.5034 33.5517 22.4332 33.9184 22.2937 34.2608C22.1532 34.6055 21.9452 34.9187 21.682 35.1819C21.4188 35.4451 21.1057 35.6531 20.761 35.7935C20.4202 35.9324 20.0555 36.0026 19.6876 36C19.3198 36.0026 18.955 35.9324 18.6143 35.7935C18.2696 35.6531 17.9564 35.4451 17.6932 35.1819C17.43 34.9187 17.222 34.6055 17.0816 34.2608C16.942 33.9184 16.8718 33.5516 16.8751 33.1819V25.875C16.8751 25.2537 17.3788 24.75 18.0001 24.75Z" fill="#669ABD"/>
<path fill-rule="evenodd" clip-rule="evenodd" d="M14.4138 11.25C13.9766 11.2498 13.551 11.3908 13.2005 11.6521C12.8501 11.9133 12.5934 12.2807 12.4687 12.6995C12.4686 12.6997 12.4686 12.6999 12.4685 12.7L10.709 18.6317L10.707 18.6383C10.6855 18.7074 10.6781 18.7801 10.6852 18.8521C10.6923 18.9242 10.7137 18.994 10.7482 19.0576C10.7827 19.1213 10.8295 19.1774 10.886 19.2226C10.9424 19.2679 11.0074 19.3014 11.077 19.3212L11.0895 19.3247L11.1019 19.3286C11.1711 19.35 11.2439 19.3573 11.316 19.3502C11.3881 19.3431 11.458 19.3217 11.5217 19.2871C11.5853 19.2526 11.6415 19.2057 11.6868 19.1492C11.732 19.0926 11.7656 19.0276 11.7854 18.958C11.9553 18.3603 12.5775 18.0136 13.1752 18.1835C13.7728 18.3534 14.1195 18.9756 13.9496 19.5733C13.8478 19.9314 13.6754 20.2655 13.4427 20.556C13.2099 20.8465 12.9214 21.0876 12.5942 21.2651C12.2669 21.4425 11.9075 21.5528 11.537 21.5893C11.1708 21.6255 10.8012 21.5889 10.4492 21.4818C10.0958 21.3796 9.76608 21.2085 9.47893 20.9784C9.18839 20.7455 8.94735 20.457 8.76996 20.1296C8.59258 19.8023 8.48244 19.4428 8.44601 19.0722C8.40984 18.7043 8.4471 18.3328 8.55558 17.9795L10.3119 12.0584C10.5749 11.1745 11.1164 10.3993 11.8558 9.84816C12.595 9.29715 13.4924 8.99966 14.4144 9M22.7997 11.6526C22.4492 11.3912 22.0237 11.2499 21.5864 11.25H14.4138M21.5862 9C22.5084 8.9999 23.406 9.29777 24.1451 9.84921C24.8843 10.4007 25.4255 11.1762 25.6881 12.0603L27.4443 17.9809C27.5528 18.3343 27.5901 18.7057 27.5539 19.0736C27.5175 19.4442 27.4073 19.8037 27.23 20.131C27.0526 20.4584 26.8115 20.747 26.521 20.9798C26.2334 21.2102 25.9032 21.3814 25.5492 21.4836C25.1972 21.59 24.8276 21.6257 24.4616 21.5889C24.0918 21.5516 23.7332 21.441 23.4067 21.2634C23.0802 21.0858 22.7924 20.8448 22.5602 20.5546C22.3281 20.2644 22.1561 19.9307 22.0545 19.5732C21.8846 18.9756 22.2314 18.3534 22.829 18.1835C23.4267 18.0136 24.0489 18.3604 24.2188 18.958C24.2385 19.0276 24.272 19.0925 24.3172 19.149C24.3623 19.2054 24.4183 19.2523 24.4819 19.2869C24.5454 19.3214 24.6151 19.343 24.6871 19.3502C24.7591 19.3575 24.8317 19.3503 24.9009 19.3291L24.9119 19.3257L24.9229 19.3226C24.9925 19.3028 25.0575 19.2693 25.1139 19.224C25.1704 19.1788 25.2173 19.1227 25.2517 19.0591C25.2862 18.9954 25.3076 18.9256 25.3147 18.8535C25.3218 18.7815 25.3144 18.7088 25.293 18.6397L25.2909 18.6331L23.5312 12.7009C23.5312 12.7008 23.5312 12.7007 23.5311 12.7006C23.4066 12.2816 23.15 11.914 22.7997 11.6526M21.5862 9C21.5862 9 21.5861 9 21.5861 9H21.5862ZM21.5861 9H14.4146H21.5861Z" fill="#669ABD"/>
<path fill-rule="evenodd" clip-rule="evenodd" d="M18 2.25C17.068 2.25 16.3125 3.00552 16.3125 3.9375C16.3125 4.86948 17.068 5.625 18 5.625C18.932 5.625 19.6875 4.86948 19.6875 3.9375C19.6875 3.00552 18.932 2.25 18 2.25ZM14.0625 3.9375C14.0625 1.76288 15.8254 0 18 0C20.1746 0 21.9375 1.76288 21.9375 3.9375C21.9375 6.11212 20.1746 7.875 18 7.875C15.8254 7.875 14.0625 6.11212 14.0625 3.9375Z" fill="#669ABD"/>
<path fill-rule="evenodd" clip-rule="evenodd" d="M14.9483 12.4223C15.5434 12.6008 15.8811 13.228 15.7026 13.8231L12.762 23.6248H23.238L20.2975 13.8231C20.1189 13.228 20.4566 12.6008 21.0517 12.4223C21.6469 12.2437 22.274 12.5814 22.4526 13.1765L25.8276 24.4265C25.9298 24.7672 25.8649 25.136 25.6526 25.4214C25.4403 25.7067 25.1056 25.8748 24.75 25.8748H11.25C10.8944 25.8748 10.5597 25.7067 10.3474 25.4214C10.1351 25.136 10.0703 24.7672 10.1725 24.4265L13.5475 13.1765C13.726 12.5814 14.3532 12.2437 14.9483 12.4223Z" fill="#669ABD"/>
</g>
<defs>
<clipPath id="clip0_58_857">
<rect width="36" height="36" fill="white"/>
</clipPath>
</defs>
</svg>
