<svg width="36" height="36" viewBox="0 0 36 36" fill="none" xmlns="http://www.w3.org/2000/svg">
<path d="M31.8858 16.443C32.5968 17.373 32.5968 18.6285 31.8858 19.557C29.6463 22.4805 24.2733 28.5 18.0003 28.5C11.7273 28.5 6.35426 22.4805 4.11476 19.557C3.76884 19.1117 3.58105 18.5639 3.58105 18C3.58105 17.4361 3.76884 16.8883 4.11476 16.443C6.35426 13.5195 11.7273 7.5 18.0003 7.5C24.2733 7.5 29.6463 13.5195 31.8858 16.443Z" stroke="#669ABD" stroke-width="3" stroke-linecap="round" stroke-linejoin="round"/>
<path d="M18 22.5C20.4853 22.5 22.5 20.4853 22.5 18C22.5 15.5147 20.4853 13.5 18 13.5C15.5147 13.5 13.5 15.5147 13.5 18C13.5 20.4853 15.5147 22.5 18 22.5Z" stroke="#669ABD" stroke-width="3" stroke-linecap="round" stroke-linejoin="round"/>
</svg>
