<svg width="36" height="36" viewBox="0 0 36 36" fill="none" xmlns="http://www.w3.org/2000/svg">
<path d="M28.5682 26.9998C29.2403 25.3869 29.4205 23.6113 29.0862 21.8962C28.7519 20.1812 27.9181 18.6033 26.6895 17.3608C27.0276 16.5089 27.0917 15.5728 26.8729 14.6828C26.6541 13.7928 26.1633 12.9931 25.4689 12.395L28.5919 9.27204C29.0135 8.84976 29.2503 8.27744 29.2503 7.68073C29.2503 7.08401 29.0135 6.51169 28.5919 6.08941L25.4104 2.90791C24.9881 2.48631 24.4158 2.24951 23.8191 2.24951C23.2224 2.24951 22.65 2.48631 22.2277 2.90791L7.40925 17.7264C6.98792 18.1488 6.75131 18.7211 6.75131 19.3177C6.75131 19.9143 6.98792 20.4866 7.40925 20.909L10.5907 24.0905C11.013 24.5121 11.5854 24.7489 12.1821 24.7489C12.7788 24.7489 13.3511 24.5121 13.7734 24.0905L19.1452 18.7187C19.907 19.5996 20.9854 20.1447 22.1465 20.2357C23.3076 20.3267 24.4577 19.9562 25.3474 19.2047C26.2723 20.2628 26.8403 21.5854 26.9708 22.9848C27.1012 24.3841 26.7875 25.7889 26.0741 26.9998H18V31.4998H4.5V33.7498H31.5V26.9998H28.5682ZM12.1815 22.4998L9 19.3172L11.1139 17.2044L14.2954 20.3859L12.1815 22.4998ZM18 15.7498C18.0016 16.0339 18.0302 16.3171 18.0855 16.5958L15.8861 18.7952L12.7046 15.6137L23.8196 4.49866L27 7.68016L23.3449 11.3364C22.6941 11.2073 22.0227 11.2245 21.3794 11.3868C20.7361 11.5492 20.1369 11.8525 19.6253 12.275C19.1137 12.6974 18.7025 13.2284 18.4214 13.8293C18.1402 14.4303 17.9963 15.0863 18 15.7498ZM22.5 17.9998C22.055 17.9998 21.62 17.8678 21.25 17.6206C20.88 17.3734 20.5916 17.022 20.4213 16.6108C20.251 16.1997 20.2064 15.7473 20.2932 15.3108C20.38 14.8744 20.5943 14.4735 20.909 14.1588C21.2237 13.8441 21.6246 13.6298 22.061 13.543C22.4975 13.4562 22.9499 13.5008 23.361 13.6711C23.7722 13.8414 24.1236 14.1297 24.3708 14.4998C24.618 14.8698 24.75 15.3048 24.75 15.7498C24.7494 16.3463 24.5122 16.9183 24.0903 17.3401C23.6685 17.7619 23.0966 17.9992 22.5 17.9998ZM29.25 31.4998H20.25V29.2498H29.25V31.4998Z" fill="#669ABD"/>
</svg>
