<svg width="50" height="50" viewBox="0 0 50 50" fill="none" xmlns="http://www.w3.org/2000/svg">
<path fill-rule="evenodd" clip-rule="evenodd" d="M32.7236 9.20735C25.7181 6.40515 17.2162 8.00305 12.2762 13.4442L12.2758 13.4446C9.84364 16.1221 8.31824 19.4986 7.91676 23.0935C7.51529 26.6883 8.2582 30.3182 10.0397 33.4662C11.8212 36.6143 14.5505 39.12 17.839 40.6267C21.1275 42.1334 24.8075 42.5641 28.355 41.8576L28.3556 41.8575C35.4934 40.438 40.8132 33.9843 42.2333 26.8841C42.4871 25.6148 43.7219 24.7916 44.9912 25.0455C46.2605 25.2994 47.0836 26.5341 46.8298 27.8034C45.1248 36.3282 38.6634 44.5869 29.2699 46.455C24.7551 47.354 20.0717 46.8057 15.8866 44.8882C11.7012 42.9707 8.22756 39.7815 5.96017 35.7749C3.69278 31.7683 2.74726 27.1485 3.25823 22.5732C3.76917 17.9981 5.71045 13.7009 8.80565 10.2933M8.80604 10.2928C15.2035 3.24685 25.8452 1.40739 34.4645 4.85512C35.6663 5.33585 36.2509 6.69984 35.7701 7.90168C35.2894 9.10352 33.9254 9.68809 32.7236 9.20735" fill="#669ABD"/>
<path fill-rule="evenodd" clip-rule="evenodd" d="M46.121 9.99657C47.0721 10.8745 47.1314 12.3573 46.2534 13.3085L27.5034 33.621C27.0708 34.0897 26.4658 34.3618 25.8281 34.3745C25.1904 34.3873 24.575 34.1396 24.124 33.6885L16.3115 25.876C15.3962 24.9608 15.3962 23.4768 16.3115 22.5615C17.2268 21.6462 18.7107 21.6462 19.626 22.5615L25.7136 28.6491L42.8091 10.129C43.687 9.1779 45.1698 9.11859 46.121 9.99657Z" fill="#669ABD"/>
</svg>
