<svg width="333" height="450" viewBox="0 0 333 450" fill="none" xmlns="http://www.w3.org/2000/svg">
<path fill-rule="evenodd" clip-rule="evenodd" d="M323.052 9.23004H9.23004V440.735H323.052V9.23004ZM0 0V449.965H332.282V0H0Z" fill="#242424"/>
<path d="M294.208 9.22998H303.438V440.735H294.208V9.22998Z" fill="#242424"/>
<path d="M28.8438 9.22998H38.0738V440.735H28.8438V9.22998Z" fill="#242424"/>
<path fill-rule="evenodd" clip-rule="evenodd" d="M175.371 215.175L38.074 9.23001L45.7539 4.11011L183.051 210.055L175.371 215.175Z" fill="#242424"/>
<path fill-rule="evenodd" clip-rule="evenodd" d="M294.428 262.764L122.318 9.26243L129.955 4.07788L302.064 257.58L294.428 262.764Z" fill="#242424"/>
<path fill-rule="evenodd" clip-rule="evenodd" d="M179.409 210.56L38.0736 358.241L31.4053 351.859L172.74 204.179L179.409 210.56Z" fill="#242424"/>
<path fill-rule="evenodd" clip-rule="evenodd" d="M300.46 261.02L123.487 449.929L116.751 443.619L293.724 254.709L300.46 261.02Z" fill="#242424"/>
</svg>
