<svg width="36" height="36" viewBox="0 0 36 36" fill="none" xmlns="http://www.w3.org/2000/svg">
<path d="M18 3C26.2845 3 33 9.7155 33 18C33 26.2845 26.2845 33 18 33C15.606 33.0033 13.2462 32.4312 11.1195 31.332L5.38051 32.9325C5.06032 33.0219 4.72214 33.0245 4.4006 32.9401C4.07906 32.8557 3.78574 32.6874 3.55068 32.4523C3.31562 32.2173 3.14728 31.9239 3.0629 31.6024C2.97853 31.2809 2.98116 30.9427 3.07051 30.6225L4.67251 24.888C3.57054 22.7594 2.9969 20.3969 3.00001 18C3.00001 9.7155 9.71551 3 18 3ZM18 5.25C14.6185 5.25 11.3755 6.5933 8.9844 8.98439C6.59331 11.3755 5.25001 14.6185 5.25001 18C5.25001 20.205 5.80951 22.3245 6.85951 24.2055L7.08451 24.6105L5.41651 30.5865L11.397 28.9185L11.802 29.1435C13.5036 30.0895 15.3992 30.6333 17.3435 30.7332C19.2879 30.8331 21.2292 30.4864 23.0188 29.7196C24.8083 28.9529 26.3985 27.7866 27.6674 26.31C28.9363 24.8335 29.8503 23.0859 30.3391 21.2014C30.8279 19.3169 30.8787 17.3455 30.4876 15.4383C30.0964 13.5311 29.2737 11.7388 28.0825 10.1989C26.8913 8.65897 25.3632 7.41228 23.6155 6.55444C21.8678 5.69659 19.9469 5.25037 18 5.25ZM13.125 19.5H19.872C20.157 19.5001 20.4314 19.6084 20.6397 19.803C20.848 19.9976 20.9746 20.2639 20.9941 20.5483C21.0135 20.8327 20.9242 21.1138 20.7444 21.3349C20.5645 21.5561 20.3074 21.7006 20.025 21.7395L19.872 21.75H13.125C12.84 21.7499 12.5656 21.6416 12.3573 21.447C12.1491 21.2524 12.0224 20.9861 12.003 20.7017C11.9835 20.4173 12.0728 20.1362 12.2527 19.9151C12.4325 19.6939 12.6896 19.5494 12.972 19.5105L13.125 19.5ZM13.125 14.25H22.8825C23.1674 14.2505 23.4415 14.359 23.6495 14.5537C23.8575 14.7484 23.9839 15.0148 24.0031 15.2991C24.0223 15.5833 23.933 15.8643 23.7531 16.0852C23.5733 16.3062 23.3163 16.4507 23.034 16.4895L22.8825 16.5H13.125C12.84 16.4999 12.5656 16.3916 12.3573 16.197C12.1491 16.0024 12.0224 15.7361 12.003 15.4517C11.9835 15.1673 12.0728 14.8862 12.2527 14.6651C12.4325 14.4439 12.6896 14.2994 12.972 14.2605L13.125 14.25Z" fill="#669ABD"/>
</svg>
