<svg width="170" height="150" viewBox="0 0 170 150" fill="none" xmlns="http://www.w3.org/2000/svg">
<path d="M8.90625 5C8.90625 5.12432 8.85686 5.24355 8.76896 5.33146C8.68105 5.41936 8.56182 5.46875 8.4375 5.46875H5.46875V8.4375C5.46875 8.56182 5.41936 8.68105 5.33146 8.76896C5.24355 8.85686 5.12432 8.90625 5 8.90625C4.87568 8.90625 4.75645 8.85686 4.66854 8.76896C4.58064 8.68105 4.53125 8.56182 4.53125 8.4375V5.46875H1.5625C1.43818 5.46875 1.31895 5.41936 1.23104 5.33146C1.14314 5.24355 1.09375 5.12432 1.09375 5C1.09375 4.87568 1.14314 4.75645 1.23104 4.66854C1.31895 4.58064 1.43818 4.53125 1.5625 4.53125H4.53125V1.5625C4.53125 1.43818 4.58064 1.31895 4.66854 1.23104C4.75645 1.14314 4.87568 1.09375 5 1.09375C5.12432 1.09375 5.24355 1.14314 5.33146 1.23104C5.41936 1.31895 5.46875 1.43818 5.46875 1.5625V4.53125H8.4375C8.56182 4.53125 8.68105 4.58064 8.76896 4.66854C8.85686 4.75645 8.90625 4.87568 8.90625 5Z" fill="#DAD4EB"/>
<path d="M28.9062 5C28.9062 5.12432 28.8569 5.24355 28.769 5.33146C28.681 5.41936 28.5618 5.46875 28.4375 5.46875H25.4688V8.4375C25.4688 8.56182 25.4194 8.68105 25.3315 8.76896C25.2435 8.85686 25.1243 8.90625 25 8.90625C24.8757 8.90625 24.7565 8.85686 24.6685 8.76896C24.5806 8.68105 24.5312 8.56182 24.5312 8.4375V5.46875H21.5625C21.4382 5.46875 21.319 5.41936 21.231 5.33146C21.1431 5.24355 21.0938 5.12432 21.0938 5C21.0938 4.87568 21.1431 4.75645 21.231 4.66854C21.319 4.58064 21.4382 4.53125 21.5625 4.53125H24.5312V1.5625C24.5312 1.43818 24.5806 1.31895 24.6685 1.23104C24.7565 1.14314 24.8757 1.09375 25 1.09375C25.1243 1.09375 25.2435 1.14314 25.3315 1.23104C25.4194 1.31895 25.4688 1.43818 25.4688 1.5625V4.53125H28.4375C28.5618 4.53125 28.681 4.58064 28.769 4.66854C28.8569 4.75645 28.9062 4.87568 28.9062 5Z" fill="#DAD4EB"/>
<path d="M48.9062 5C48.9062 5.12432 48.8569 5.24355 48.769 5.33146C48.681 5.41936 48.5618 5.46875 48.4375 5.46875H45.4688V8.4375C45.4688 8.56182 45.4194 8.68105 45.3315 8.76896C45.2435 8.85686 45.1243 8.90625 45 8.90625C44.8757 8.90625 44.7565 8.85686 44.6685 8.76896C44.5806 8.68105 44.5312 8.56182 44.5312 8.4375V5.46875H41.5625C41.4382 5.46875 41.319 5.41936 41.231 5.33146C41.1431 5.24355 41.0938 5.12432 41.0938 5C41.0938 4.87568 41.1431 4.75645 41.231 4.66854C41.319 4.58064 41.4382 4.53125 41.5625 4.53125H44.5312V1.5625C44.5312 1.43818 44.5806 1.31895 44.6685 1.23104C44.7565 1.14314 44.8757 1.09375 45 1.09375C45.1243 1.09375 45.2435 1.14314 45.3315 1.23104C45.4194 1.31895 45.4688 1.43818 45.4688 1.5625V4.53125H48.4375C48.5618 4.53125 48.681 4.58064 48.769 4.66854C48.8569 4.75645 48.9062 4.87568 48.9062 5Z" fill="#DAD4EB"/>
<path d="M68.9062 5C68.9062 5.12432 68.8569 5.24355 68.769 5.33146C68.681 5.41936 68.5618 5.46875 68.4375 5.46875H65.4688V8.4375C65.4688 8.56182 65.4194 8.68105 65.3315 8.76896C65.2435 8.85686 65.1243 8.90625 65 8.90625C64.8757 8.90625 64.7565 8.85686 64.6685 8.76896C64.5806 8.68105 64.5312 8.56182 64.5312 8.4375V5.46875H61.5625C61.4382 5.46875 61.319 5.41936 61.231 5.33146C61.1431 5.24355 61.0938 5.12432 61.0938 5C61.0938 4.87568 61.1431 4.75645 61.231 4.66854C61.319 4.58064 61.4382 4.53125 61.5625 4.53125H64.5312V1.5625C64.5312 1.43818 64.5806 1.31895 64.6685 1.23104C64.7565 1.14314 64.8757 1.09375 65 1.09375C65.1243 1.09375 65.2435 1.14314 65.3315 1.23104C65.4194 1.31895 65.4688 1.43818 65.4688 1.5625V4.53125H68.4375C68.5618 4.53125 68.681 4.58064 68.769 4.66854C68.8569 4.75645 68.9062 4.87568 68.9062 5Z" fill="#DAD4EB"/>
<path d="M88.9062 5C88.9062 5.12432 88.8569 5.24355 88.769 5.33146C88.681 5.41936 88.5618 5.46875 88.4375 5.46875H85.4688V8.4375C85.4688 8.56182 85.4194 8.68105 85.3315 8.76896C85.2435 8.85686 85.1243 8.90625 85 8.90625C84.8757 8.90625 84.7565 8.85686 84.6685 8.76896C84.5806 8.68105 84.5312 8.56182 84.5312 8.4375V5.46875H81.5625C81.4382 5.46875 81.319 5.41936 81.231 5.33146C81.1431 5.24355 81.0938 5.12432 81.0938 5C81.0938 4.87568 81.1431 4.75645 81.231 4.66854C81.319 4.58064 81.4382 4.53125 81.5625 4.53125H84.5312V1.5625C84.5312 1.43818 84.5806 1.31895 84.6685 1.23104C84.7565 1.14314 84.8757 1.09375 85 1.09375C85.1243 1.09375 85.2435 1.14314 85.3315 1.23104C85.4194 1.31895 85.4688 1.43818 85.4688 1.5625V4.53125H88.4375C88.5618 4.53125 88.681 4.58064 88.769 4.66854C88.8569 4.75645 88.9062 4.87568 88.9062 5Z" fill="#DAD4EB"/>
<path d="M108.906 5C108.906 5.12432 108.857 5.24355 108.769 5.33146C108.681 5.41936 108.562 5.46875 108.438 5.46875H105.469V8.4375C105.469 8.56182 105.419 8.68105 105.331 8.76896C105.244 8.85686 105.124 8.90625 105 8.90625C104.876 8.90625 104.756 8.85686 104.669 8.76896C104.581 8.68105 104.531 8.56182 104.531 8.4375V5.46875H101.562C101.438 5.46875 101.319 5.41936 101.231 5.33146C101.143 5.24355 101.094 5.12432 101.094 5C101.094 4.87568 101.143 4.75645 101.231 4.66854C101.319 4.58064 101.438 4.53125 101.562 4.53125H104.531V1.5625C104.531 1.43818 104.581 1.31895 104.669 1.23104C104.756 1.14314 104.876 1.09375 105 1.09375C105.124 1.09375 105.244 1.14314 105.331 1.23104C105.419 1.31895 105.469 1.43818 105.469 1.5625V4.53125H108.438C108.562 4.53125 108.681 4.58064 108.769 4.66854C108.857 4.75645 108.906 4.87568 108.906 5Z" fill="#DAD4EB"/>
<path d="M128.906 5C128.906 5.12432 128.857 5.24355 128.769 5.33146C128.681 5.41936 128.562 5.46875 128.438 5.46875H125.469V8.4375C125.469 8.56182 125.419 8.68105 125.331 8.76896C125.244 8.85686 125.124 8.90625 125 8.90625C124.876 8.90625 124.756 8.85686 124.669 8.76896C124.581 8.68105 124.531 8.56182 124.531 8.4375V5.46875H121.562C121.438 5.46875 121.319 5.41936 121.231 5.33146C121.143 5.24355 121.094 5.12432 121.094 5C121.094 4.87568 121.143 4.75645 121.231 4.66854C121.319 4.58064 121.438 4.53125 121.562 4.53125H124.531V1.5625C124.531 1.43818 124.581 1.31895 124.669 1.23104C124.756 1.14314 124.876 1.09375 125 1.09375C125.124 1.09375 125.244 1.14314 125.331 1.23104C125.419 1.31895 125.469 1.43818 125.469 1.5625V4.53125H128.438C128.562 4.53125 128.681 4.58064 128.769 4.66854C128.857 4.75645 128.906 4.87568 128.906 5Z" fill="#DAD4EB"/>
<path d="M148.906 5C148.906 5.12432 148.857 5.24355 148.769 5.33146C148.681 5.41936 148.562 5.46875 148.438 5.46875H145.469V8.4375C145.469 8.56182 145.419 8.68105 145.331 8.76896C145.244 8.85686 145.124 8.90625 145 8.90625C144.876 8.90625 144.756 8.85686 144.669 8.76896C144.581 8.68105 144.531 8.56182 144.531 8.4375V5.46875H141.562C141.438 5.46875 141.319 5.41936 141.231 5.33146C141.143 5.24355 141.094 5.12432 141.094 5C141.094 4.87568 141.143 4.75645 141.231 4.66854C141.319 4.58064 141.438 4.53125 141.562 4.53125H144.531V1.5625C144.531 1.43818 144.581 1.31895 144.669 1.23104C144.756 1.14314 144.876 1.09375 145 1.09375C145.124 1.09375 145.244 1.14314 145.331 1.23104C145.419 1.31895 145.469 1.43818 145.469 1.5625V4.53125H148.438C148.562 4.53125 148.681 4.58064 148.769 4.66854C148.857 4.75645 148.906 4.87568 148.906 5Z" fill="#DAD4EB"/>
<path d="M168.906 5C168.906 5.12432 168.857 5.24355 168.769 5.33146C168.681 5.41936 168.562 5.46875 168.438 5.46875H165.469V8.4375C165.469 8.56182 165.419 8.68105 165.331 8.76896C165.244 8.85686 165.124 8.90625 165 8.90625C164.876 8.90625 164.756 8.85686 164.669 8.76896C164.581 8.68105 164.531 8.56182 164.531 8.4375V5.46875H161.562C161.438 5.46875 161.319 5.41936 161.231 5.33146C161.143 5.24355 161.094 5.12432 161.094 5C161.094 4.87568 161.143 4.75645 161.231 4.66854C161.319 4.58064 161.438 4.53125 161.562 4.53125H164.531V1.5625C164.531 1.43818 164.581 1.31895 164.669 1.23104C164.756 1.14314 164.876 1.09375 165 1.09375C165.124 1.09375 165.244 1.14314 165.331 1.23104C165.419 1.31895 165.469 1.43818 165.469 1.5625V4.53125H168.438C168.562 4.53125 168.681 4.58064 168.769 4.66854C168.857 4.75645 168.906 4.87568 168.906 5Z" fill="#DAD4EB"/>
<path d="M8.90625 25C8.90625 25.1243 8.85686 25.2435 8.76896 25.3315C8.68105 25.4194 8.56182 25.4688 8.4375 25.4688H5.46875V28.4375C5.46875 28.5618 5.41936 28.681 5.33146 28.769C5.24355 28.8569 5.12432 28.9062 5 28.9062C4.87568 28.9062 4.75645 28.8569 4.66854 28.769C4.58064 28.681 4.53125 28.5618 4.53125 28.4375V25.4688H1.5625C1.43818 25.4688 1.31895 25.4194 1.23104 25.3315C1.14314 25.2435 1.09375 25.1243 1.09375 25C1.09375 24.8757 1.14314 24.7565 1.23104 24.6685C1.31895 24.5806 1.43818 24.5312 1.5625 24.5312H4.53125V21.5625C4.53125 21.4382 4.58064 21.319 4.66854 21.231C4.75645 21.1431 4.87568 21.0938 5 21.0938C5.12432 21.0938 5.24355 21.1431 5.33146 21.231C5.41936 21.319 5.46875 21.4382 5.46875 21.5625V24.5312H8.4375C8.56182 24.5312 8.68105 24.5806 8.76896 24.6685C8.85686 24.7565 8.90625 24.8757 8.90625 25Z" fill="#DAD4EB"/>
<path d="M28.9062 25C28.9062 25.1243 28.8569 25.2435 28.769 25.3315C28.681 25.4194 28.5618 25.4688 28.4375 25.4688H25.4688V28.4375C25.4688 28.5618 25.4194 28.681 25.3315 28.769C25.2435 28.8569 25.1243 28.9062 25 28.9062C24.8757 28.9062 24.7565 28.8569 24.6685 28.769C24.5806 28.681 24.5312 28.5618 24.5312 28.4375V25.4688H21.5625C21.4382 25.4688 21.319 25.4194 21.231 25.3315C21.1431 25.2435 21.0938 25.1243 21.0938 25C21.0938 24.8757 21.1431 24.7565 21.231 24.6685C21.319 24.5806 21.4382 24.5312 21.5625 24.5312H24.5312V21.5625C24.5312 21.4382 24.5806 21.319 24.6685 21.231C24.7565 21.1431 24.8757 21.0938 25 21.0938C25.1243 21.0938 25.2435 21.1431 25.3315 21.231C25.4194 21.319 25.4688 21.4382 25.4688 21.5625V24.5312H28.4375C28.5618 24.5312 28.681 24.5806 28.769 24.6685C28.8569 24.7565 28.9062 24.8757 28.9062 25Z" fill="#DAD4EB"/>
<path d="M48.9062 25C48.9062 25.1243 48.8569 25.2435 48.769 25.3315C48.681 25.4194 48.5618 25.4688 48.4375 25.4688H45.4688V28.4375C45.4688 28.5618 45.4194 28.681 45.3315 28.769C45.2435 28.8569 45.1243 28.9062 45 28.9062C44.8757 28.9062 44.7565 28.8569 44.6685 28.769C44.5806 28.681 44.5312 28.5618 44.5312 28.4375V25.4688H41.5625C41.4382 25.4688 41.319 25.4194 41.231 25.3315C41.1431 25.2435 41.0938 25.1243 41.0938 25C41.0938 24.8757 41.1431 24.7565 41.231 24.6685C41.319 24.5806 41.4382 24.5312 41.5625 24.5312H44.5312V21.5625C44.5312 21.4382 44.5806 21.319 44.6685 21.231C44.7565 21.1431 44.8757 21.0938 45 21.0938C45.1243 21.0938 45.2435 21.1431 45.3315 21.231C45.4194 21.319 45.4688 21.4382 45.4688 21.5625V24.5312H48.4375C48.5618 24.5312 48.681 24.5806 48.769 24.6685C48.8569 24.7565 48.9062 24.8757 48.9062 25Z" fill="#DAD4EB"/>
<path d="M68.9062 25C68.9062 25.1243 68.8569 25.2435 68.769 25.3315C68.681 25.4194 68.5618 25.4688 68.4375 25.4688H65.4688V28.4375C65.4688 28.5618 65.4194 28.681 65.3315 28.769C65.2435 28.8569 65.1243 28.9062 65 28.9062C64.8757 28.9062 64.7565 28.8569 64.6685 28.769C64.5806 28.681 64.5312 28.5618 64.5312 28.4375V25.4688H61.5625C61.4382 25.4688 61.319 25.4194 61.231 25.3315C61.1431 25.2435 61.0938 25.1243 61.0938 25C61.0938 24.8757 61.1431 24.7565 61.231 24.6685C61.319 24.5806 61.4382 24.5312 61.5625 24.5312H64.5312V21.5625C64.5312 21.4382 64.5806 21.319 64.6685 21.231C64.7565 21.1431 64.8757 21.0938 65 21.0938C65.1243 21.0938 65.2435 21.1431 65.3315 21.231C65.4194 21.319 65.4688 21.4382 65.4688 21.5625V24.5312H68.4375C68.5618 24.5312 68.681 24.5806 68.769 24.6685C68.8569 24.7565 68.9062 24.8757 68.9062 25Z" fill="#DAD4EB"/>
<path d="M88.9062 25C88.9062 25.1243 88.8569 25.2435 88.769 25.3315C88.681 25.4194 88.5618 25.4688 88.4375 25.4688H85.4688V28.4375C85.4688 28.5618 85.4194 28.681 85.3315 28.769C85.2435 28.8569 85.1243 28.9062 85 28.9062C84.8757 28.9062 84.7565 28.8569 84.6685 28.769C84.5806 28.681 84.5312 28.5618 84.5312 28.4375V25.4688H81.5625C81.4382 25.4688 81.319 25.4194 81.231 25.3315C81.1431 25.2435 81.0938 25.1243 81.0938 25C81.0938 24.8757 81.1431 24.7565 81.231 24.6685C81.319 24.5806 81.4382 24.5312 81.5625 24.5312H84.5312V21.5625C84.5312 21.4382 84.5806 21.319 84.6685 21.231C84.7565 21.1431 84.8757 21.0938 85 21.0938C85.1243 21.0938 85.2435 21.1431 85.3315 21.231C85.4194 21.319 85.4688 21.4382 85.4688 21.5625V24.5312H88.4375C88.5618 24.5312 88.681 24.5806 88.769 24.6685C88.8569 24.7565 88.9062 24.8757 88.9062 25Z" fill="#DAD4EB"/>
<path d="M108.906 25C108.906 25.1243 108.857 25.2435 108.769 25.3315C108.681 25.4194 108.562 25.4688 108.438 25.4688H105.469V28.4375C105.469 28.5618 105.419 28.681 105.331 28.769C105.244 28.8569 105.124 28.9062 105 28.9062C104.876 28.9062 104.756 28.8569 104.669 28.769C104.581 28.681 104.531 28.5618 104.531 28.4375V25.4688H101.562C101.438 25.4688 101.319 25.4194 101.231 25.3315C101.143 25.2435 101.094 25.1243 101.094 25C101.094 24.8757 101.143 24.7565 101.231 24.6685C101.319 24.5806 101.438 24.5312 101.562 24.5312H104.531V21.5625C104.531 21.4382 104.581 21.319 104.669 21.231C104.756 21.1431 104.876 21.0938 105 21.0938C105.124 21.0938 105.244 21.1431 105.331 21.231C105.419 21.319 105.469 21.4382 105.469 21.5625V24.5312H108.438C108.562 24.5312 108.681 24.5806 108.769 24.6685C108.857 24.7565 108.906 24.8757 108.906 25Z" fill="#DAD4EB"/>
<path d="M128.906 25C128.906 25.1243 128.857 25.2435 128.769 25.3315C128.681 25.4194 128.562 25.4688 128.438 25.4688H125.469V28.4375C125.469 28.5618 125.419 28.681 125.331 28.769C125.244 28.8569 125.124 28.9062 125 28.9062C124.876 28.9062 124.756 28.8569 124.669 28.769C124.581 28.681 124.531 28.5618 124.531 28.4375V25.4688H121.562C121.438 25.4688 121.319 25.4194 121.231 25.3315C121.143 25.2435 121.094 25.1243 121.094 25C121.094 24.8757 121.143 24.7565 121.231 24.6685C121.319 24.5806 121.438 24.5312 121.562 24.5312H124.531V21.5625C124.531 21.4382 124.581 21.319 124.669 21.231C124.756 21.1431 124.876 21.0938 125 21.0938C125.124 21.0938 125.244 21.1431 125.331 21.231C125.419 21.319 125.469 21.4382 125.469 21.5625V24.5312H128.438C128.562 24.5312 128.681 24.5806 128.769 24.6685C128.857 24.7565 128.906 24.8757 128.906 25Z" fill="#DAD4EB"/>
<path d="M148.906 25C148.906 25.1243 148.857 25.2435 148.769 25.3315C148.681 25.4194 148.562 25.4688 148.438 25.4688H145.469V28.4375C145.469 28.5618 145.419 28.681 145.331 28.769C145.244 28.8569 145.124 28.9062 145 28.9062C144.876 28.9062 144.756 28.8569 144.669 28.769C144.581 28.681 144.531 28.5618 144.531 28.4375V25.4688H141.562C141.438 25.4688 141.319 25.4194 141.231 25.3315C141.143 25.2435 141.094 25.1243 141.094 25C141.094 24.8757 141.143 24.7565 141.231 24.6685C141.319 24.5806 141.438 24.5312 141.562 24.5312H144.531V21.5625C144.531 21.4382 144.581 21.319 144.669 21.231C144.756 21.1431 144.876 21.0938 145 21.0938C145.124 21.0938 145.244 21.1431 145.331 21.231C145.419 21.319 145.469 21.4382 145.469 21.5625V24.5312H148.438C148.562 24.5312 148.681 24.5806 148.769 24.6685C148.857 24.7565 148.906 24.8757 148.906 25Z" fill="#DAD4EB"/>
<path d="M168.906 25C168.906 25.1243 168.857 25.2435 168.769 25.3315C168.681 25.4194 168.562 25.4688 168.438 25.4688H165.469V28.4375C165.469 28.5618 165.419 28.681 165.331 28.769C165.244 28.8569 165.124 28.9062 165 28.9062C164.876 28.9062 164.756 28.8569 164.669 28.769C164.581 28.681 164.531 28.5618 164.531 28.4375V25.4688H161.562C161.438 25.4688 161.319 25.4194 161.231 25.3315C161.143 25.2435 161.094 25.1243 161.094 25C161.094 24.8757 161.143 24.7565 161.231 24.6685C161.319 24.5806 161.438 24.5312 161.562 24.5312H164.531V21.5625C164.531 21.4382 164.581 21.319 164.669 21.231C164.756 21.1431 164.876 21.0938 165 21.0938C165.124 21.0938 165.244 21.1431 165.331 21.231C165.419 21.319 165.469 21.4382 165.469 21.5625V24.5312H168.438C168.562 24.5312 168.681 24.5806 168.769 24.6685C168.857 24.7565 168.906 24.8757 168.906 25Z" fill="#DAD4EB"/>
<path d="M8.90625 45C8.90625 45.1243 8.85686 45.2435 8.76896 45.3315C8.68105 45.4194 8.56182 45.4688 8.4375 45.4688H5.46875V48.4375C5.46875 48.5618 5.41936 48.681 5.33146 48.769C5.24355 48.8569 5.12432 48.9062 5 48.9062C4.87568 48.9062 4.75645 48.8569 4.66854 48.769C4.58064 48.681 4.53125 48.5618 4.53125 48.4375V45.4688H1.5625C1.43818 45.4688 1.31895 45.4194 1.23104 45.3315C1.14314 45.2435 1.09375 45.1243 1.09375 45C1.09375 44.8757 1.14314 44.7565 1.23104 44.6685C1.31895 44.5806 1.43818 44.5312 1.5625 44.5312H4.53125V41.5625C4.53125 41.4382 4.58064 41.319 4.66854 41.231C4.75645 41.1431 4.87568 41.0938 5 41.0938C5.12432 41.0938 5.24355 41.1431 5.33146 41.231C5.41936 41.319 5.46875 41.4382 5.46875 41.5625V44.5312H8.4375C8.56182 44.5312 8.68105 44.5806 8.76896 44.6685C8.85686 44.7565 8.90625 44.8757 8.90625 45Z" fill="#DAD4EB"/>
<path d="M28.9062 45C28.9062 45.1243 28.8569 45.2435 28.769 45.3315C28.681 45.4194 28.5618 45.4688 28.4375 45.4688H25.4688V48.4375C25.4688 48.5618 25.4194 48.681 25.3315 48.769C25.2435 48.8569 25.1243 48.9062 25 48.9062C24.8757 48.9062 24.7565 48.8569 24.6685 48.769C24.5806 48.681 24.5312 48.5618 24.5312 48.4375V45.4688H21.5625C21.4382 45.4688 21.319 45.4194 21.231 45.3315C21.1431 45.2435 21.0938 45.1243 21.0938 45C21.0938 44.8757 21.1431 44.7565 21.231 44.6685C21.319 44.5806 21.4382 44.5312 21.5625 44.5312H24.5312V41.5625C24.5312 41.4382 24.5806 41.319 24.6685 41.231C24.7565 41.1431 24.8757 41.0938 25 41.0938C25.1243 41.0938 25.2435 41.1431 25.3315 41.231C25.4194 41.319 25.4688 41.4382 25.4688 41.5625V44.5312H28.4375C28.5618 44.5312 28.681 44.5806 28.769 44.6685C28.8569 44.7565 28.9062 44.8757 28.9062 45Z" fill="#DAD4EB"/>
<path d="M48.9062 45C48.9062 45.1243 48.8569 45.2435 48.769 45.3315C48.681 45.4194 48.5618 45.4688 48.4375 45.4688H45.4688V48.4375C45.4688 48.5618 45.4194 48.681 45.3315 48.769C45.2435 48.8569 45.1243 48.9062 45 48.9062C44.8757 48.9062 44.7565 48.8569 44.6685 48.769C44.5806 48.681 44.5312 48.5618 44.5312 48.4375V45.4688H41.5625C41.4382 45.4688 41.319 45.4194 41.231 45.3315C41.1431 45.2435 41.0938 45.1243 41.0938 45C41.0938 44.8757 41.1431 44.7565 41.231 44.6685C41.319 44.5806 41.4382 44.5312 41.5625 44.5312H44.5312V41.5625C44.5312 41.4382 44.5806 41.319 44.6685 41.231C44.7565 41.1431 44.8757 41.0938 45 41.0938C45.1243 41.0938 45.2435 41.1431 45.3315 41.231C45.4194 41.319 45.4688 41.4382 45.4688 41.5625V44.5312H48.4375C48.5618 44.5312 48.681 44.5806 48.769 44.6685C48.8569 44.7565 48.9062 44.8757 48.9062 45Z" fill="#DAD4EB"/>
<path d="M68.9062 45C68.9062 45.1243 68.8569 45.2435 68.769 45.3315C68.681 45.4194 68.5618 45.4688 68.4375 45.4688H65.4688V48.4375C65.4688 48.5618 65.4194 48.681 65.3315 48.769C65.2435 48.8569 65.1243 48.9062 65 48.9062C64.8757 48.9062 64.7565 48.8569 64.6685 48.769C64.5806 48.681 64.5312 48.5618 64.5312 48.4375V45.4688H61.5625C61.4382 45.4688 61.319 45.4194 61.231 45.3315C61.1431 45.2435 61.0938 45.1243 61.0938 45C61.0938 44.8757 61.1431 44.7565 61.231 44.6685C61.319 44.5806 61.4382 44.5312 61.5625 44.5312H64.5312V41.5625C64.5312 41.4382 64.5806 41.319 64.6685 41.231C64.7565 41.1431 64.8757 41.0938 65 41.0938C65.1243 41.0938 65.2435 41.1431 65.3315 41.231C65.4194 41.319 65.4688 41.4382 65.4688 41.5625V44.5312H68.4375C68.5618 44.5312 68.681 44.5806 68.769 44.6685C68.8569 44.7565 68.9062 44.8757 68.9062 45Z" fill="#DAD4EB"/>
<path d="M88.9062 45C88.9062 45.1243 88.8569 45.2435 88.769 45.3315C88.681 45.4194 88.5618 45.4688 88.4375 45.4688H85.4688V48.4375C85.4688 48.5618 85.4194 48.681 85.3315 48.769C85.2435 48.8569 85.1243 48.9062 85 48.9062C84.8757 48.9062 84.7565 48.8569 84.6685 48.769C84.5806 48.681 84.5312 48.5618 84.5312 48.4375V45.4688H81.5625C81.4382 45.4688 81.319 45.4194 81.231 45.3315C81.1431 45.2435 81.0938 45.1243 81.0938 45C81.0938 44.8757 81.1431 44.7565 81.231 44.6685C81.319 44.5806 81.4382 44.5312 81.5625 44.5312H84.5312V41.5625C84.5312 41.4382 84.5806 41.319 84.6685 41.231C84.7565 41.1431 84.8757 41.0938 85 41.0938C85.1243 41.0938 85.2435 41.1431 85.3315 41.231C85.4194 41.319 85.4688 41.4382 85.4688 41.5625V44.5312H88.4375C88.5618 44.5312 88.681 44.5806 88.769 44.6685C88.8569 44.7565 88.9062 44.8757 88.9062 45Z" fill="#DAD4EB"/>
<path d="M108.906 45C108.906 45.1243 108.857 45.2435 108.769 45.3315C108.681 45.4194 108.562 45.4688 108.438 45.4688H105.469V48.4375C105.469 48.5618 105.419 48.681 105.331 48.769C105.244 48.8569 105.124 48.9062 105 48.9062C104.876 48.9062 104.756 48.8569 104.669 48.769C104.581 48.681 104.531 48.5618 104.531 48.4375V45.4688H101.562C101.438 45.4688 101.319 45.4194 101.231 45.3315C101.143 45.2435 101.094 45.1243 101.094 45C101.094 44.8757 101.143 44.7565 101.231 44.6685C101.319 44.5806 101.438 44.5312 101.562 44.5312H104.531V41.5625C104.531 41.4382 104.581 41.319 104.669 41.231C104.756 41.1431 104.876 41.0938 105 41.0938C105.124 41.0938 105.244 41.1431 105.331 41.231C105.419 41.319 105.469 41.4382 105.469 41.5625V44.5312H108.438C108.562 44.5312 108.681 44.5806 108.769 44.6685C108.857 44.7565 108.906 44.8757 108.906 45Z" fill="#DAD4EB"/>
<path d="M128.906 45C128.906 45.1243 128.857 45.2435 128.769 45.3315C128.681 45.4194 128.562 45.4688 128.438 45.4688H125.469V48.4375C125.469 48.5618 125.419 48.681 125.331 48.769C125.244 48.8569 125.124 48.9062 125 48.9062C124.876 48.9062 124.756 48.8569 124.669 48.769C124.581 48.681 124.531 48.5618 124.531 48.4375V45.4688H121.562C121.438 45.4688 121.319 45.4194 121.231 45.3315C121.143 45.2435 121.094 45.1243 121.094 45C121.094 44.8757 121.143 44.7565 121.231 44.6685C121.319 44.5806 121.438 44.5312 121.562 44.5312H124.531V41.5625C124.531 41.4382 124.581 41.319 124.669 41.231C124.756 41.1431 124.876 41.0938 125 41.0938C125.124 41.0938 125.244 41.1431 125.331 41.231C125.419 41.319 125.469 41.4382 125.469 41.5625V44.5312H128.438C128.562 44.5312 128.681 44.5806 128.769 44.6685C128.857 44.7565 128.906 44.8757 128.906 45Z" fill="#DAD4EB"/>
<path d="M148.906 45C148.906 45.1243 148.857 45.2435 148.769 45.3315C148.681 45.4194 148.562 45.4688 148.438 45.4688H145.469V48.4375C145.469 48.5618 145.419 48.681 145.331 48.769C145.244 48.8569 145.124 48.9062 145 48.9062C144.876 48.9062 144.756 48.8569 144.669 48.769C144.581 48.681 144.531 48.5618 144.531 48.4375V45.4688H141.562C141.438 45.4688 141.319 45.4194 141.231 45.3315C141.143 45.2435 141.094 45.1243 141.094 45C141.094 44.8757 141.143 44.7565 141.231 44.6685C141.319 44.5806 141.438 44.5312 141.562 44.5312H144.531V41.5625C144.531 41.4382 144.581 41.319 144.669 41.231C144.756 41.1431 144.876 41.0938 145 41.0938C145.124 41.0938 145.244 41.1431 145.331 41.231C145.419 41.319 145.469 41.4382 145.469 41.5625V44.5312H148.438C148.562 44.5312 148.681 44.5806 148.769 44.6685C148.857 44.7565 148.906 44.8757 148.906 45Z" fill="#DAD4EB"/>
<path d="M168.906 45C168.906 45.1243 168.857 45.2435 168.769 45.3315C168.681 45.4194 168.562 45.4688 168.438 45.4688H165.469V48.4375C165.469 48.5618 165.419 48.681 165.331 48.769C165.244 48.8569 165.124 48.9062 165 48.9062C164.876 48.9062 164.756 48.8569 164.669 48.769C164.581 48.681 164.531 48.5618 164.531 48.4375V45.4688H161.562C161.438 45.4688 161.319 45.4194 161.231 45.3315C161.143 45.2435 161.094 45.1243 161.094 45C161.094 44.8757 161.143 44.7565 161.231 44.6685C161.319 44.5806 161.438 44.5312 161.562 44.5312H164.531V41.5625C164.531 41.4382 164.581 41.319 164.669 41.231C164.756 41.1431 164.876 41.0938 165 41.0938C165.124 41.0938 165.244 41.1431 165.331 41.231C165.419 41.319 165.469 41.4382 165.469 41.5625V44.5312H168.438C168.562 44.5312 168.681 44.5806 168.769 44.6685C168.857 44.7565 168.906 44.8757 168.906 45Z" fill="#DAD4EB"/>
<path d="M8.90625 65C8.90625 65.1243 8.85686 65.2435 8.76896 65.3315C8.68105 65.4194 8.56182 65.4688 8.4375 65.4688H5.46875V68.4375C5.46875 68.5618 5.41936 68.681 5.33146 68.769C5.24355 68.8569 5.12432 68.9062 5 68.9062C4.87568 68.9062 4.75645 68.8569 4.66854 68.769C4.58064 68.681 4.53125 68.5618 4.53125 68.4375V65.4688H1.5625C1.43818 65.4688 1.31895 65.4194 1.23104 65.3315C1.14314 65.2435 1.09375 65.1243 1.09375 65C1.09375 64.8757 1.14314 64.7565 1.23104 64.6685C1.31895 64.5806 1.43818 64.5312 1.5625 64.5312H4.53125V61.5625C4.53125 61.4382 4.58064 61.319 4.66854 61.231C4.75645 61.1431 4.87568 61.0938 5 61.0938C5.12432 61.0938 5.24355 61.1431 5.33146 61.231C5.41936 61.319 5.46875 61.4382 5.46875 61.5625V64.5312H8.4375C8.56182 64.5312 8.68105 64.5806 8.76896 64.6685C8.85686 64.7565 8.90625 64.8757 8.90625 65Z" fill="#DAD4EB"/>
<path d="M28.9062 65C28.9062 65.1243 28.8569 65.2435 28.769 65.3315C28.681 65.4194 28.5618 65.4688 28.4375 65.4688H25.4688V68.4375C25.4688 68.5618 25.4194 68.681 25.3315 68.769C25.2435 68.8569 25.1243 68.9062 25 68.9062C24.8757 68.9062 24.7565 68.8569 24.6685 68.769C24.5806 68.681 24.5312 68.5618 24.5312 68.4375V65.4688H21.5625C21.4382 65.4688 21.319 65.4194 21.231 65.3315C21.1431 65.2435 21.0938 65.1243 21.0938 65C21.0938 64.8757 21.1431 64.7565 21.231 64.6685C21.319 64.5806 21.4382 64.5312 21.5625 64.5312H24.5312V61.5625C24.5312 61.4382 24.5806 61.319 24.6685 61.231C24.7565 61.1431 24.8757 61.0938 25 61.0938C25.1243 61.0938 25.2435 61.1431 25.3315 61.231C25.4194 61.319 25.4688 61.4382 25.4688 61.5625V64.5312H28.4375C28.5618 64.5312 28.681 64.5806 28.769 64.6685C28.8569 64.7565 28.9062 64.8757 28.9062 65Z" fill="#DAD4EB"/>
<path d="M48.9062 65C48.9062 65.1243 48.8569 65.2435 48.769 65.3315C48.681 65.4194 48.5618 65.4688 48.4375 65.4688H45.4688V68.4375C45.4688 68.5618 45.4194 68.681 45.3315 68.769C45.2435 68.8569 45.1243 68.9062 45 68.9062C44.8757 68.9062 44.7565 68.8569 44.6685 68.769C44.5806 68.681 44.5312 68.5618 44.5312 68.4375V65.4688H41.5625C41.4382 65.4688 41.319 65.4194 41.231 65.3315C41.1431 65.2435 41.0938 65.1243 41.0938 65C41.0938 64.8757 41.1431 64.7565 41.231 64.6685C41.319 64.5806 41.4382 64.5312 41.5625 64.5312H44.5312V61.5625C44.5312 61.4382 44.5806 61.319 44.6685 61.231C44.7565 61.1431 44.8757 61.0938 45 61.0938C45.1243 61.0938 45.2435 61.1431 45.3315 61.231C45.4194 61.319 45.4688 61.4382 45.4688 61.5625V64.5312H48.4375C48.5618 64.5312 48.681 64.5806 48.769 64.6685C48.8569 64.7565 48.9062 64.8757 48.9062 65Z" fill="#DAD4EB"/>
<path d="M68.9062 65C68.9062 65.1243 68.8569 65.2435 68.769 65.3315C68.681 65.4194 68.5618 65.4688 68.4375 65.4688H65.4688V68.4375C65.4688 68.5618 65.4194 68.681 65.3315 68.769C65.2435 68.8569 65.1243 68.9062 65 68.9062C64.8757 68.9062 64.7565 68.8569 64.6685 68.769C64.5806 68.681 64.5312 68.5618 64.5312 68.4375V65.4688H61.5625C61.4382 65.4688 61.319 65.4194 61.231 65.3315C61.1431 65.2435 61.0938 65.1243 61.0938 65C61.0938 64.8757 61.1431 64.7565 61.231 64.6685C61.319 64.5806 61.4382 64.5312 61.5625 64.5312H64.5312V61.5625C64.5312 61.4382 64.5806 61.319 64.6685 61.231C64.7565 61.1431 64.8757 61.0938 65 61.0938C65.1243 61.0938 65.2435 61.1431 65.3315 61.231C65.4194 61.319 65.4688 61.4382 65.4688 61.5625V64.5312H68.4375C68.5618 64.5312 68.681 64.5806 68.769 64.6685C68.8569 64.7565 68.9062 64.8757 68.9062 65Z" fill="#DAD4EB"/>
<path d="M88.9062 65C88.9062 65.1243 88.8569 65.2435 88.769 65.3315C88.681 65.4194 88.5618 65.4688 88.4375 65.4688H85.4688V68.4375C85.4688 68.5618 85.4194 68.681 85.3315 68.769C85.2435 68.8569 85.1243 68.9062 85 68.9062C84.8757 68.9062 84.7565 68.8569 84.6685 68.769C84.5806 68.681 84.5312 68.5618 84.5312 68.4375V65.4688H81.5625C81.4382 65.4688 81.319 65.4194 81.231 65.3315C81.1431 65.2435 81.0938 65.1243 81.0938 65C81.0938 64.8757 81.1431 64.7565 81.231 64.6685C81.319 64.5806 81.4382 64.5312 81.5625 64.5312H84.5312V61.5625C84.5312 61.4382 84.5806 61.319 84.6685 61.231C84.7565 61.1431 84.8757 61.0938 85 61.0938C85.1243 61.0938 85.2435 61.1431 85.3315 61.231C85.4194 61.319 85.4688 61.4382 85.4688 61.5625V64.5312H88.4375C88.5618 64.5312 88.681 64.5806 88.769 64.6685C88.8569 64.7565 88.9062 64.8757 88.9062 65Z" fill="#DAD4EB"/>
<path d="M108.906 65C108.906 65.1243 108.857 65.2435 108.769 65.3315C108.681 65.4194 108.562 65.4688 108.438 65.4688H105.469V68.4375C105.469 68.5618 105.419 68.681 105.331 68.769C105.244 68.8569 105.124 68.9062 105 68.9062C104.876 68.9062 104.756 68.8569 104.669 68.769C104.581 68.681 104.531 68.5618 104.531 68.4375V65.4688H101.562C101.438 65.4688 101.319 65.4194 101.231 65.3315C101.143 65.2435 101.094 65.1243 101.094 65C101.094 64.8757 101.143 64.7565 101.231 64.6685C101.319 64.5806 101.438 64.5312 101.562 64.5312H104.531V61.5625C104.531 61.4382 104.581 61.319 104.669 61.231C104.756 61.1431 104.876 61.0938 105 61.0938C105.124 61.0938 105.244 61.1431 105.331 61.231C105.419 61.319 105.469 61.4382 105.469 61.5625V64.5312H108.438C108.562 64.5312 108.681 64.5806 108.769 64.6685C108.857 64.7565 108.906 64.8757 108.906 65Z" fill="#DAD4EB"/>
<path d="M128.906 65C128.906 65.1243 128.857 65.2435 128.769 65.3315C128.681 65.4194 128.562 65.4688 128.438 65.4688H125.469V68.4375C125.469 68.5618 125.419 68.681 125.331 68.769C125.244 68.8569 125.124 68.9062 125 68.9062C124.876 68.9062 124.756 68.8569 124.669 68.769C124.581 68.681 124.531 68.5618 124.531 68.4375V65.4688H121.562C121.438 65.4688 121.319 65.4194 121.231 65.3315C121.143 65.2435 121.094 65.1243 121.094 65C121.094 64.8757 121.143 64.7565 121.231 64.6685C121.319 64.5806 121.438 64.5312 121.562 64.5312H124.531V61.5625C124.531 61.4382 124.581 61.319 124.669 61.231C124.756 61.1431 124.876 61.0938 125 61.0938C125.124 61.0938 125.244 61.1431 125.331 61.231C125.419 61.319 125.469 61.4382 125.469 61.5625V64.5312H128.438C128.562 64.5312 128.681 64.5806 128.769 64.6685C128.857 64.7565 128.906 64.8757 128.906 65Z" fill="#DAD4EB"/>
<path d="M148.906 65C148.906 65.1243 148.857 65.2435 148.769 65.3315C148.681 65.4194 148.562 65.4688 148.438 65.4688H145.469V68.4375C145.469 68.5618 145.419 68.681 145.331 68.769C145.244 68.8569 145.124 68.9062 145 68.9062C144.876 68.9062 144.756 68.8569 144.669 68.769C144.581 68.681 144.531 68.5618 144.531 68.4375V65.4688H141.562C141.438 65.4688 141.319 65.4194 141.231 65.3315C141.143 65.2435 141.094 65.1243 141.094 65C141.094 64.8757 141.143 64.7565 141.231 64.6685C141.319 64.5806 141.438 64.5312 141.562 64.5312H144.531V61.5625C144.531 61.4382 144.581 61.319 144.669 61.231C144.756 61.1431 144.876 61.0938 145 61.0938C145.124 61.0938 145.244 61.1431 145.331 61.231C145.419 61.319 145.469 61.4382 145.469 61.5625V64.5312H148.438C148.562 64.5312 148.681 64.5806 148.769 64.6685C148.857 64.7565 148.906 64.8757 148.906 65Z" fill="#DAD4EB"/>
<path d="M168.906 65C168.906 65.1243 168.857 65.2435 168.769 65.3315C168.681 65.4194 168.562 65.4688 168.438 65.4688H165.469V68.4375C165.469 68.5618 165.419 68.681 165.331 68.769C165.244 68.8569 165.124 68.9062 165 68.9062C164.876 68.9062 164.756 68.8569 164.669 68.769C164.581 68.681 164.531 68.5618 164.531 68.4375V65.4688H161.562C161.438 65.4688 161.319 65.4194 161.231 65.3315C161.143 65.2435 161.094 65.1243 161.094 65C161.094 64.8757 161.143 64.7565 161.231 64.6685C161.319 64.5806 161.438 64.5312 161.562 64.5312H164.531V61.5625C164.531 61.4382 164.581 61.319 164.669 61.231C164.756 61.1431 164.876 61.0938 165 61.0938C165.124 61.0938 165.244 61.1431 165.331 61.231C165.419 61.319 165.469 61.4382 165.469 61.5625V64.5312H168.438C168.562 64.5312 168.681 64.5806 168.769 64.6685C168.857 64.7565 168.906 64.8757 168.906 65Z" fill="#DAD4EB"/>
<path d="M8.90625 85C8.90625 85.1243 8.85686 85.2435 8.76896 85.3315C8.68105 85.4194 8.56182 85.4688 8.4375 85.4688H5.46875V88.4375C5.46875 88.5618 5.41936 88.681 5.33146 88.769C5.24355 88.8569 5.12432 88.9062 5 88.9062C4.87568 88.9062 4.75645 88.8569 4.66854 88.769C4.58064 88.681 4.53125 88.5618 4.53125 88.4375V85.4688H1.5625C1.43818 85.4688 1.31895 85.4194 1.23104 85.3315C1.14314 85.2435 1.09375 85.1243 1.09375 85C1.09375 84.8757 1.14314 84.7565 1.23104 84.6685C1.31895 84.5806 1.43818 84.5312 1.5625 84.5312H4.53125V81.5625C4.53125 81.4382 4.58064 81.319 4.66854 81.231C4.75645 81.1431 4.87568 81.0938 5 81.0938C5.12432 81.0938 5.24355 81.1431 5.33146 81.231C5.41936 81.319 5.46875 81.4382 5.46875 81.5625V84.5312H8.4375C8.56182 84.5312 8.68105 84.5806 8.76896 84.6685C8.85686 84.7565 8.90625 84.8757 8.90625 85Z" fill="#DAD4EB"/>
<path d="M28.9062 85C28.9062 85.1243 28.8569 85.2435 28.769 85.3315C28.681 85.4194 28.5618 85.4688 28.4375 85.4688H25.4688V88.4375C25.4688 88.5618 25.4194 88.681 25.3315 88.769C25.2435 88.8569 25.1243 88.9062 25 88.9062C24.8757 88.9062 24.7565 88.8569 24.6685 88.769C24.5806 88.681 24.5312 88.5618 24.5312 88.4375V85.4688H21.5625C21.4382 85.4688 21.319 85.4194 21.231 85.3315C21.1431 85.2435 21.0938 85.1243 21.0938 85C21.0938 84.8757 21.1431 84.7565 21.231 84.6685C21.319 84.5806 21.4382 84.5312 21.5625 84.5312H24.5312V81.5625C24.5312 81.4382 24.5806 81.319 24.6685 81.231C24.7565 81.1431 24.8757 81.0938 25 81.0938C25.1243 81.0938 25.2435 81.1431 25.3315 81.231C25.4194 81.319 25.4688 81.4382 25.4688 81.5625V84.5312H28.4375C28.5618 84.5312 28.681 84.5806 28.769 84.6685C28.8569 84.7565 28.9062 84.8757 28.9062 85Z" fill="#DAD4EB"/>
<path d="M48.9062 85C48.9062 85.1243 48.8569 85.2435 48.769 85.3315C48.681 85.4194 48.5618 85.4688 48.4375 85.4688H45.4688V88.4375C45.4688 88.5618 45.4194 88.681 45.3315 88.769C45.2435 88.8569 45.1243 88.9062 45 88.9062C44.8757 88.9062 44.7565 88.8569 44.6685 88.769C44.5806 88.681 44.5312 88.5618 44.5312 88.4375V85.4688H41.5625C41.4382 85.4688 41.319 85.4194 41.231 85.3315C41.1431 85.2435 41.0938 85.1243 41.0938 85C41.0938 84.8757 41.1431 84.7565 41.231 84.6685C41.319 84.5806 41.4382 84.5312 41.5625 84.5312H44.5312V81.5625C44.5312 81.4382 44.5806 81.319 44.6685 81.231C44.7565 81.1431 44.8757 81.0938 45 81.0938C45.1243 81.0938 45.2435 81.1431 45.3315 81.231C45.4194 81.319 45.4688 81.4382 45.4688 81.5625V84.5312H48.4375C48.5618 84.5312 48.681 84.5806 48.769 84.6685C48.8569 84.7565 48.9062 84.8757 48.9062 85Z" fill="#DAD4EB"/>
<path d="M68.9062 85C68.9062 85.1243 68.8569 85.2435 68.769 85.3315C68.681 85.4194 68.5618 85.4688 68.4375 85.4688H65.4688V88.4375C65.4688 88.5618 65.4194 88.681 65.3315 88.769C65.2435 88.8569 65.1243 88.9062 65 88.9062C64.8757 88.9062 64.7565 88.8569 64.6685 88.769C64.5806 88.681 64.5312 88.5618 64.5312 88.4375V85.4688H61.5625C61.4382 85.4688 61.319 85.4194 61.231 85.3315C61.1431 85.2435 61.0938 85.1243 61.0938 85C61.0938 84.8757 61.1431 84.7565 61.231 84.6685C61.319 84.5806 61.4382 84.5312 61.5625 84.5312H64.5312V81.5625C64.5312 81.4382 64.5806 81.319 64.6685 81.231C64.7565 81.1431 64.8757 81.0938 65 81.0938C65.1243 81.0938 65.2435 81.1431 65.3315 81.231C65.4194 81.319 65.4688 81.4382 65.4688 81.5625V84.5312H68.4375C68.5618 84.5312 68.681 84.5806 68.769 84.6685C68.8569 84.7565 68.9062 84.8757 68.9062 85Z" fill="#DAD4EB"/>
<path d="M88.9062 85C88.9062 85.1243 88.8569 85.2435 88.769 85.3315C88.681 85.4194 88.5618 85.4688 88.4375 85.4688H85.4688V88.4375C85.4688 88.5618 85.4194 88.681 85.3315 88.769C85.2435 88.8569 85.1243 88.9062 85 88.9062C84.8757 88.9062 84.7565 88.8569 84.6685 88.769C84.5806 88.681 84.5312 88.5618 84.5312 88.4375V85.4688H81.5625C81.4382 85.4688 81.319 85.4194 81.231 85.3315C81.1431 85.2435 81.0938 85.1243 81.0938 85C81.0938 84.8757 81.1431 84.7565 81.231 84.6685C81.319 84.5806 81.4382 84.5312 81.5625 84.5312H84.5312V81.5625C84.5312 81.4382 84.5806 81.319 84.6685 81.231C84.7565 81.1431 84.8757 81.0938 85 81.0938C85.1243 81.0938 85.2435 81.1431 85.3315 81.231C85.4194 81.319 85.4688 81.4382 85.4688 81.5625V84.5312H88.4375C88.5618 84.5312 88.681 84.5806 88.769 84.6685C88.8569 84.7565 88.9062 84.8757 88.9062 85Z" fill="#DAD4EB"/>
<path d="M108.906 85C108.906 85.1243 108.857 85.2435 108.769 85.3315C108.681 85.4194 108.562 85.4688 108.438 85.4688H105.469V88.4375C105.469 88.5618 105.419 88.681 105.331 88.769C105.244 88.8569 105.124 88.9062 105 88.9062C104.876 88.9062 104.756 88.8569 104.669 88.769C104.581 88.681 104.531 88.5618 104.531 88.4375V85.4688H101.562C101.438 85.4688 101.319 85.4194 101.231 85.3315C101.143 85.2435 101.094 85.1243 101.094 85C101.094 84.8757 101.143 84.7565 101.231 84.6685C101.319 84.5806 101.438 84.5312 101.562 84.5312H104.531V81.5625C104.531 81.4382 104.581 81.319 104.669 81.231C104.756 81.1431 104.876 81.0938 105 81.0938C105.124 81.0938 105.244 81.1431 105.331 81.231C105.419 81.319 105.469 81.4382 105.469 81.5625V84.5312H108.438C108.562 84.5312 108.681 84.5806 108.769 84.6685C108.857 84.7565 108.906 84.8757 108.906 85Z" fill="#DAD4EB"/>
<path d="M128.906 85C128.906 85.1243 128.857 85.2435 128.769 85.3315C128.681 85.4194 128.562 85.4688 128.438 85.4688H125.469V88.4375C125.469 88.5618 125.419 88.681 125.331 88.769C125.244 88.8569 125.124 88.9062 125 88.9062C124.876 88.9062 124.756 88.8569 124.669 88.769C124.581 88.681 124.531 88.5618 124.531 88.4375V85.4688H121.562C121.438 85.4688 121.319 85.4194 121.231 85.3315C121.143 85.2435 121.094 85.1243 121.094 85C121.094 84.8757 121.143 84.7565 121.231 84.6685C121.319 84.5806 121.438 84.5312 121.562 84.5312H124.531V81.5625C124.531 81.4382 124.581 81.319 124.669 81.231C124.756 81.1431 124.876 81.0938 125 81.0938C125.124 81.0938 125.244 81.1431 125.331 81.231C125.419 81.319 125.469 81.4382 125.469 81.5625V84.5312H128.438C128.562 84.5312 128.681 84.5806 128.769 84.6685C128.857 84.7565 128.906 84.8757 128.906 85Z" fill="#DAD4EB"/>
<path d="M148.906 85C148.906 85.1243 148.857 85.2435 148.769 85.3315C148.681 85.4194 148.562 85.4688 148.438 85.4688H145.469V88.4375C145.469 88.5618 145.419 88.681 145.331 88.769C145.244 88.8569 145.124 88.9062 145 88.9062C144.876 88.9062 144.756 88.8569 144.669 88.769C144.581 88.681 144.531 88.5618 144.531 88.4375V85.4688H141.562C141.438 85.4688 141.319 85.4194 141.231 85.3315C141.143 85.2435 141.094 85.1243 141.094 85C141.094 84.8757 141.143 84.7565 141.231 84.6685C141.319 84.5806 141.438 84.5312 141.562 84.5312H144.531V81.5625C144.531 81.4382 144.581 81.319 144.669 81.231C144.756 81.1431 144.876 81.0938 145 81.0938C145.124 81.0938 145.244 81.1431 145.331 81.231C145.419 81.319 145.469 81.4382 145.469 81.5625V84.5312H148.438C148.562 84.5312 148.681 84.5806 148.769 84.6685C148.857 84.7565 148.906 84.8757 148.906 85Z" fill="#DAD4EB"/>
<path d="M168.906 85C168.906 85.1243 168.857 85.2435 168.769 85.3315C168.681 85.4194 168.562 85.4688 168.438 85.4688H165.469V88.4375C165.469 88.5618 165.419 88.681 165.331 88.769C165.244 88.8569 165.124 88.9062 165 88.9062C164.876 88.9062 164.756 88.8569 164.669 88.769C164.581 88.681 164.531 88.5618 164.531 88.4375V85.4688H161.562C161.438 85.4688 161.319 85.4194 161.231 85.3315C161.143 85.2435 161.094 85.1243 161.094 85C161.094 84.8757 161.143 84.7565 161.231 84.6685C161.319 84.5806 161.438 84.5312 161.562 84.5312H164.531V81.5625C164.531 81.4382 164.581 81.319 164.669 81.231C164.756 81.1431 164.876 81.0938 165 81.0938C165.124 81.0938 165.244 81.1431 165.331 81.231C165.419 81.319 165.469 81.4382 165.469 81.5625V84.5312H168.438C168.562 84.5312 168.681 84.5806 168.769 84.6685C168.857 84.7565 168.906 84.8757 168.906 85Z" fill="#DAD4EB"/>
<path d="M8.90625 105C8.90625 105.124 8.85686 105.244 8.76896 105.331C8.68105 105.419 8.56182 105.469 8.4375 105.469H5.46875V108.438C5.46875 108.562 5.41936 108.681 5.33146 108.769C5.24355 108.857 5.12432 108.906 5 108.906C4.87568 108.906 4.75645 108.857 4.66854 108.769C4.58064 108.681 4.53125 108.562 4.53125 108.438V105.469H1.5625C1.43818 105.469 1.31895 105.419 1.23104 105.331C1.14314 105.244 1.09375 105.124 1.09375 105C1.09375 104.876 1.14314 104.756 1.23104 104.669C1.31895 104.581 1.43818 104.531 1.5625 104.531H4.53125V101.562C4.53125 101.438 4.58064 101.319 4.66854 101.231C4.75645 101.143 4.87568 101.094 5 101.094C5.12432 101.094 5.24355 101.143 5.33146 101.231C5.41936 101.319 5.46875 101.438 5.46875 101.562V104.531H8.4375C8.56182 104.531 8.68105 104.581 8.76896 104.669C8.85686 104.756 8.90625 104.876 8.90625 105Z" fill="#DAD4EB"/>
<path d="M28.9062 105C28.9062 105.124 28.8569 105.244 28.769 105.331C28.681 105.419 28.5618 105.469 28.4375 105.469H25.4688V108.438C25.4688 108.562 25.4194 108.681 25.3315 108.769C25.2435 108.857 25.1243 108.906 25 108.906C24.8757 108.906 24.7565 108.857 24.6685 108.769C24.5806 108.681 24.5312 108.562 24.5312 108.438V105.469H21.5625C21.4382 105.469 21.319 105.419 21.231 105.331C21.1431 105.244 21.0938 105.124 21.0938 105C21.0938 104.876 21.1431 104.756 21.231 104.669C21.319 104.581 21.4382 104.531 21.5625 104.531H24.5312V101.562C24.5312 101.438 24.5806 101.319 24.6685 101.231C24.7565 101.143 24.8757 101.094 25 101.094C25.1243 101.094 25.2435 101.143 25.3315 101.231C25.4194 101.319 25.4688 101.438 25.4688 101.562V104.531H28.4375C28.5618 104.531 28.681 104.581 28.769 104.669C28.8569 104.756 28.9062 104.876 28.9062 105Z" fill="#DAD4EB"/>
<path d="M48.9062 105C48.9062 105.124 48.8569 105.244 48.769 105.331C48.681 105.419 48.5618 105.469 48.4375 105.469H45.4688V108.438C45.4688 108.562 45.4194 108.681 45.3315 108.769C45.2435 108.857 45.1243 108.906 45 108.906C44.8757 108.906 44.7565 108.857 44.6685 108.769C44.5806 108.681 44.5312 108.562 44.5312 108.438V105.469H41.5625C41.4382 105.469 41.319 105.419 41.231 105.331C41.1431 105.244 41.0938 105.124 41.0938 105C41.0938 104.876 41.1431 104.756 41.231 104.669C41.319 104.581 41.4382 104.531 41.5625 104.531H44.5312V101.562C44.5312 101.438 44.5806 101.319 44.6685 101.231C44.7565 101.143 44.8757 101.094 45 101.094C45.1243 101.094 45.2435 101.143 45.3315 101.231C45.4194 101.319 45.4688 101.438 45.4688 101.562V104.531H48.4375C48.5618 104.531 48.681 104.581 48.769 104.669C48.8569 104.756 48.9062 104.876 48.9062 105Z" fill="#DAD4EB"/>
<path d="M68.9062 105C68.9062 105.124 68.8569 105.244 68.769 105.331C68.681 105.419 68.5618 105.469 68.4375 105.469H65.4688V108.438C65.4688 108.562 65.4194 108.681 65.3315 108.769C65.2435 108.857 65.1243 108.906 65 108.906C64.8757 108.906 64.7565 108.857 64.6685 108.769C64.5806 108.681 64.5312 108.562 64.5312 108.438V105.469H61.5625C61.4382 105.469 61.319 105.419 61.231 105.331C61.1431 105.244 61.0938 105.124 61.0938 105C61.0938 104.876 61.1431 104.756 61.231 104.669C61.319 104.581 61.4382 104.531 61.5625 104.531H64.5312V101.562C64.5312 101.438 64.5806 101.319 64.6685 101.231C64.7565 101.143 64.8757 101.094 65 101.094C65.1243 101.094 65.2435 101.143 65.3315 101.231C65.4194 101.319 65.4688 101.438 65.4688 101.562V104.531H68.4375C68.5618 104.531 68.681 104.581 68.769 104.669C68.8569 104.756 68.9062 104.876 68.9062 105Z" fill="#DAD4EB"/>
<path d="M88.9062 105C88.9062 105.124 88.8569 105.244 88.769 105.331C88.681 105.419 88.5618 105.469 88.4375 105.469H85.4688V108.438C85.4688 108.562 85.4194 108.681 85.3315 108.769C85.2435 108.857 85.1243 108.906 85 108.906C84.8757 108.906 84.7565 108.857 84.6685 108.769C84.5806 108.681 84.5312 108.562 84.5312 108.438V105.469H81.5625C81.4382 105.469 81.319 105.419 81.231 105.331C81.1431 105.244 81.0938 105.124 81.0938 105C81.0938 104.876 81.1431 104.756 81.231 104.669C81.319 104.581 81.4382 104.531 81.5625 104.531H84.5312V101.562C84.5312 101.438 84.5806 101.319 84.6685 101.231C84.7565 101.143 84.8757 101.094 85 101.094C85.1243 101.094 85.2435 101.143 85.3315 101.231C85.4194 101.319 85.4688 101.438 85.4688 101.562V104.531H88.4375C88.5618 104.531 88.681 104.581 88.769 104.669C88.8569 104.756 88.9062 104.876 88.9062 105Z" fill="#DAD4EB"/>
<path d="M108.906 105C108.906 105.124 108.857 105.244 108.769 105.331C108.681 105.419 108.562 105.469 108.438 105.469H105.469V108.438C105.469 108.562 105.419 108.681 105.331 108.769C105.244 108.857 105.124 108.906 105 108.906C104.876 108.906 104.756 108.857 104.669 108.769C104.581 108.681 104.531 108.562 104.531 108.438V105.469H101.562C101.438 105.469 101.319 105.419 101.231 105.331C101.143 105.244 101.094 105.124 101.094 105C101.094 104.876 101.143 104.756 101.231 104.669C101.319 104.581 101.438 104.531 101.562 104.531H104.531V101.562C104.531 101.438 104.581 101.319 104.669 101.231C104.756 101.143 104.876 101.094 105 101.094C105.124 101.094 105.244 101.143 105.331 101.231C105.419 101.319 105.469 101.438 105.469 101.562V104.531H108.438C108.562 104.531 108.681 104.581 108.769 104.669C108.857 104.756 108.906 104.876 108.906 105Z" fill="#DAD4EB"/>
<path d="M128.906 105C128.906 105.124 128.857 105.244 128.769 105.331C128.681 105.419 128.562 105.469 128.438 105.469H125.469V108.438C125.469 108.562 125.419 108.681 125.331 108.769C125.244 108.857 125.124 108.906 125 108.906C124.876 108.906 124.756 108.857 124.669 108.769C124.581 108.681 124.531 108.562 124.531 108.438V105.469H121.562C121.438 105.469 121.319 105.419 121.231 105.331C121.143 105.244 121.094 105.124 121.094 105C121.094 104.876 121.143 104.756 121.231 104.669C121.319 104.581 121.438 104.531 121.562 104.531H124.531V101.562C124.531 101.438 124.581 101.319 124.669 101.231C124.756 101.143 124.876 101.094 125 101.094C125.124 101.094 125.244 101.143 125.331 101.231C125.419 101.319 125.469 101.438 125.469 101.562V104.531H128.438C128.562 104.531 128.681 104.581 128.769 104.669C128.857 104.756 128.906 104.876 128.906 105Z" fill="#DAD4EB"/>
<path d="M148.906 105C148.906 105.124 148.857 105.244 148.769 105.331C148.681 105.419 148.562 105.469 148.438 105.469H145.469V108.438C145.469 108.562 145.419 108.681 145.331 108.769C145.244 108.857 145.124 108.906 145 108.906C144.876 108.906 144.756 108.857 144.669 108.769C144.581 108.681 144.531 108.562 144.531 108.438V105.469H141.562C141.438 105.469 141.319 105.419 141.231 105.331C141.143 105.244 141.094 105.124 141.094 105C141.094 104.876 141.143 104.756 141.231 104.669C141.319 104.581 141.438 104.531 141.562 104.531H144.531V101.562C144.531 101.438 144.581 101.319 144.669 101.231C144.756 101.143 144.876 101.094 145 101.094C145.124 101.094 145.244 101.143 145.331 101.231C145.419 101.319 145.469 101.438 145.469 101.562V104.531H148.438C148.562 104.531 148.681 104.581 148.769 104.669C148.857 104.756 148.906 104.876 148.906 105Z" fill="#DAD4EB"/>
<path d="M168.906 105C168.906 105.124 168.857 105.244 168.769 105.331C168.681 105.419 168.562 105.469 168.438 105.469H165.469V108.438C165.469 108.562 165.419 108.681 165.331 108.769C165.244 108.857 165.124 108.906 165 108.906C164.876 108.906 164.756 108.857 164.669 108.769C164.581 108.681 164.531 108.562 164.531 108.438V105.469H161.562C161.438 105.469 161.319 105.419 161.231 105.331C161.143 105.244 161.094 105.124 161.094 105C161.094 104.876 161.143 104.756 161.231 104.669C161.319 104.581 161.438 104.531 161.562 104.531H164.531V101.562C164.531 101.438 164.581 101.319 164.669 101.231C164.756 101.143 164.876 101.094 165 101.094C165.124 101.094 165.244 101.143 165.331 101.231C165.419 101.319 165.469 101.438 165.469 101.562V104.531H168.438C168.562 104.531 168.681 104.581 168.769 104.669C168.857 104.756 168.906 104.876 168.906 105Z" fill="#DAD4EB"/>
<path d="M8.90625 125C8.90625 125.124 8.85686 125.244 8.76896 125.331C8.68105 125.419 8.56182 125.469 8.4375 125.469H5.46875V128.438C5.46875 128.562 5.41936 128.681 5.33146 128.769C5.24355 128.857 5.12432 128.906 5 128.906C4.87568 128.906 4.75645 128.857 4.66854 128.769C4.58064 128.681 4.53125 128.562 4.53125 128.438V125.469H1.5625C1.43818 125.469 1.31895 125.419 1.23104 125.331C1.14314 125.244 1.09375 125.124 1.09375 125C1.09375 124.876 1.14314 124.756 1.23104 124.669C1.31895 124.581 1.43818 124.531 1.5625 124.531H4.53125V121.562C4.53125 121.438 4.58064 121.319 4.66854 121.231C4.75645 121.143 4.87568 121.094 5 121.094C5.12432 121.094 5.24355 121.143 5.33146 121.231C5.41936 121.319 5.46875 121.438 5.46875 121.562V124.531H8.4375C8.56182 124.531 8.68105 124.581 8.76896 124.669C8.85686 124.756 8.90625 124.876 8.90625 125Z" fill="#DAD4EB"/>
<path d="M28.9062 125C28.9062 125.124 28.8569 125.244 28.769 125.331C28.681 125.419 28.5618 125.469 28.4375 125.469H25.4688V128.438C25.4688 128.562 25.4194 128.681 25.3315 128.769C25.2435 128.857 25.1243 128.906 25 128.906C24.8757 128.906 24.7565 128.857 24.6685 128.769C24.5806 128.681 24.5312 128.562 24.5312 128.438V125.469H21.5625C21.4382 125.469 21.319 125.419 21.231 125.331C21.1431 125.244 21.0938 125.124 21.0938 125C21.0938 124.876 21.1431 124.756 21.231 124.669C21.319 124.581 21.4382 124.531 21.5625 124.531H24.5312V121.562C24.5312 121.438 24.5806 121.319 24.6685 121.231C24.7565 121.143 24.8757 121.094 25 121.094C25.1243 121.094 25.2435 121.143 25.3315 121.231C25.4194 121.319 25.4688 121.438 25.4688 121.562V124.531H28.4375C28.5618 124.531 28.681 124.581 28.769 124.669C28.8569 124.756 28.9062 124.876 28.9062 125Z" fill="#DAD4EB"/>
<path d="M48.9062 125C48.9062 125.124 48.8569 125.244 48.769 125.331C48.681 125.419 48.5618 125.469 48.4375 125.469H45.4688V128.438C45.4688 128.562 45.4194 128.681 45.3315 128.769C45.2435 128.857 45.1243 128.906 45 128.906C44.8757 128.906 44.7565 128.857 44.6685 128.769C44.5806 128.681 44.5312 128.562 44.5312 128.438V125.469H41.5625C41.4382 125.469 41.319 125.419 41.231 125.331C41.1431 125.244 41.0938 125.124 41.0938 125C41.0938 124.876 41.1431 124.756 41.231 124.669C41.319 124.581 41.4382 124.531 41.5625 124.531H44.5312V121.562C44.5312 121.438 44.5806 121.319 44.6685 121.231C44.7565 121.143 44.8757 121.094 45 121.094C45.1243 121.094 45.2435 121.143 45.3315 121.231C45.4194 121.319 45.4688 121.438 45.4688 121.562V124.531H48.4375C48.5618 124.531 48.681 124.581 48.769 124.669C48.8569 124.756 48.9062 124.876 48.9062 125Z" fill="#DAD4EB"/>
<path d="M68.9062 125C68.9062 125.124 68.8569 125.244 68.769 125.331C68.681 125.419 68.5618 125.469 68.4375 125.469H65.4688V128.438C65.4688 128.562 65.4194 128.681 65.3315 128.769C65.2435 128.857 65.1243 128.906 65 128.906C64.8757 128.906 64.7565 128.857 64.6685 128.769C64.5806 128.681 64.5312 128.562 64.5312 128.438V125.469H61.5625C61.4382 125.469 61.319 125.419 61.231 125.331C61.1431 125.244 61.0938 125.124 61.0938 125C61.0938 124.876 61.1431 124.756 61.231 124.669C61.319 124.581 61.4382 124.531 61.5625 124.531H64.5312V121.562C64.5312 121.438 64.5806 121.319 64.6685 121.231C64.7565 121.143 64.8757 121.094 65 121.094C65.1243 121.094 65.2435 121.143 65.3315 121.231C65.4194 121.319 65.4688 121.438 65.4688 121.562V124.531H68.4375C68.5618 124.531 68.681 124.581 68.769 124.669C68.8569 124.756 68.9062 124.876 68.9062 125Z" fill="#DAD4EB"/>
<path d="M88.9062 125C88.9062 125.124 88.8569 125.244 88.769 125.331C88.681 125.419 88.5618 125.469 88.4375 125.469H85.4688V128.438C85.4688 128.562 85.4194 128.681 85.3315 128.769C85.2435 128.857 85.1243 128.906 85 128.906C84.8757 128.906 84.7565 128.857 84.6685 128.769C84.5806 128.681 84.5312 128.562 84.5312 128.438V125.469H81.5625C81.4382 125.469 81.319 125.419 81.231 125.331C81.1431 125.244 81.0938 125.124 81.0938 125C81.0938 124.876 81.1431 124.756 81.231 124.669C81.319 124.581 81.4382 124.531 81.5625 124.531H84.5312V121.562C84.5312 121.438 84.5806 121.319 84.6685 121.231C84.7565 121.143 84.8757 121.094 85 121.094C85.1243 121.094 85.2435 121.143 85.3315 121.231C85.4194 121.319 85.4688 121.438 85.4688 121.562V124.531H88.4375C88.5618 124.531 88.681 124.581 88.769 124.669C88.8569 124.756 88.9062 124.876 88.9062 125Z" fill="#DAD4EB"/>
<path d="M108.906 125C108.906 125.124 108.857 125.244 108.769 125.331C108.681 125.419 108.562 125.469 108.438 125.469H105.469V128.438C105.469 128.562 105.419 128.681 105.331 128.769C105.244 128.857 105.124 128.906 105 128.906C104.876 128.906 104.756 128.857 104.669 128.769C104.581 128.681 104.531 128.562 104.531 128.438V125.469H101.562C101.438 125.469 101.319 125.419 101.231 125.331C101.143 125.244 101.094 125.124 101.094 125C101.094 124.876 101.143 124.756 101.231 124.669C101.319 124.581 101.438 124.531 101.562 124.531H104.531V121.562C104.531 121.438 104.581 121.319 104.669 121.231C104.756 121.143 104.876 121.094 105 121.094C105.124 121.094 105.244 121.143 105.331 121.231C105.419 121.319 105.469 121.438 105.469 121.562V124.531H108.438C108.562 124.531 108.681 124.581 108.769 124.669C108.857 124.756 108.906 124.876 108.906 125Z" fill="#DAD4EB"/>
<path d="M128.906 125C128.906 125.124 128.857 125.244 128.769 125.331C128.681 125.419 128.562 125.469 128.438 125.469H125.469V128.438C125.469 128.562 125.419 128.681 125.331 128.769C125.244 128.857 125.124 128.906 125 128.906C124.876 128.906 124.756 128.857 124.669 128.769C124.581 128.681 124.531 128.562 124.531 128.438V125.469H121.562C121.438 125.469 121.319 125.419 121.231 125.331C121.143 125.244 121.094 125.124 121.094 125C121.094 124.876 121.143 124.756 121.231 124.669C121.319 124.581 121.438 124.531 121.562 124.531H124.531V121.562C124.531 121.438 124.581 121.319 124.669 121.231C124.756 121.143 124.876 121.094 125 121.094C125.124 121.094 125.244 121.143 125.331 121.231C125.419 121.319 125.469 121.438 125.469 121.562V124.531H128.438C128.562 124.531 128.681 124.581 128.769 124.669C128.857 124.756 128.906 124.876 128.906 125Z" fill="#DAD4EB"/>
<path d="M148.906 125C148.906 125.124 148.857 125.244 148.769 125.331C148.681 125.419 148.562 125.469 148.438 125.469H145.469V128.438C145.469 128.562 145.419 128.681 145.331 128.769C145.244 128.857 145.124 128.906 145 128.906C144.876 128.906 144.756 128.857 144.669 128.769C144.581 128.681 144.531 128.562 144.531 128.438V125.469H141.562C141.438 125.469 141.319 125.419 141.231 125.331C141.143 125.244 141.094 125.124 141.094 125C141.094 124.876 141.143 124.756 141.231 124.669C141.319 124.581 141.438 124.531 141.562 124.531H144.531V121.562C144.531 121.438 144.581 121.319 144.669 121.231C144.756 121.143 144.876 121.094 145 121.094C145.124 121.094 145.244 121.143 145.331 121.231C145.419 121.319 145.469 121.438 145.469 121.562V124.531H148.438C148.562 124.531 148.681 124.581 148.769 124.669C148.857 124.756 148.906 124.876 148.906 125Z" fill="#DAD4EB"/>
<path d="M168.906 125C168.906 125.124 168.857 125.244 168.769 125.331C168.681 125.419 168.562 125.469 168.438 125.469H165.469V128.438C165.469 128.562 165.419 128.681 165.331 128.769C165.244 128.857 165.124 128.906 165 128.906C164.876 128.906 164.756 128.857 164.669 128.769C164.581 128.681 164.531 128.562 164.531 128.438V125.469H161.562C161.438 125.469 161.319 125.419 161.231 125.331C161.143 125.244 161.094 125.124 161.094 125C161.094 124.876 161.143 124.756 161.231 124.669C161.319 124.581 161.438 124.531 161.562 124.531H164.531V121.562C164.531 121.438 164.581 121.319 164.669 121.231C164.756 121.143 164.876 121.094 165 121.094C165.124 121.094 165.244 121.143 165.331 121.231C165.419 121.319 165.469 121.438 165.469 121.562V124.531H168.438C168.562 124.531 168.681 124.581 168.769 124.669C168.857 124.756 168.906 124.876 168.906 125Z" fill="#DAD4EB"/>
<path d="M8.90625 145C8.90625 145.124 8.85686 145.244 8.76896 145.331C8.68105 145.419 8.56182 145.469 8.4375 145.469H5.46875V148.438C5.46875 148.562 5.41936 148.681 5.33146 148.769C5.24355 148.857 5.12432 148.906 5 148.906C4.87568 148.906 4.75645 148.857 4.66854 148.769C4.58064 148.681 4.53125 148.562 4.53125 148.438V145.469H1.5625C1.43818 145.469 1.31895 145.419 1.23104 145.331C1.14314 145.244 1.09375 145.124 1.09375 145C1.09375 144.876 1.14314 144.756 1.23104 144.669C1.31895 144.581 1.43818 144.531 1.5625 144.531H4.53125V141.562C4.53125 141.438 4.58064 141.319 4.66854 141.231C4.75645 141.143 4.87568 141.094 5 141.094C5.12432 141.094 5.24355 141.143 5.33146 141.231C5.41936 141.319 5.46875 141.438 5.46875 141.562V144.531H8.4375C8.56182 144.531 8.68105 144.581 8.76896 144.669C8.85686 144.756 8.90625 144.876 8.90625 145Z" fill="#DAD4EB"/>
<path d="M28.9062 145C28.9062 145.124 28.8569 145.244 28.769 145.331C28.681 145.419 28.5618 145.469 28.4375 145.469H25.4688V148.438C25.4688 148.562 25.4194 148.681 25.3315 148.769C25.2435 148.857 25.1243 148.906 25 148.906C24.8757 148.906 24.7565 148.857 24.6685 148.769C24.5806 148.681 24.5312 148.562 24.5312 148.438V145.469H21.5625C21.4382 145.469 21.319 145.419 21.231 145.331C21.1431 145.244 21.0938 145.124 21.0938 145C21.0938 144.876 21.1431 144.756 21.231 144.669C21.319 144.581 21.4382 144.531 21.5625 144.531H24.5312V141.562C24.5312 141.438 24.5806 141.319 24.6685 141.231C24.7565 141.143 24.8757 141.094 25 141.094C25.1243 141.094 25.2435 141.143 25.3315 141.231C25.4194 141.319 25.4688 141.438 25.4688 141.562V144.531H28.4375C28.5618 144.531 28.681 144.581 28.769 144.669C28.8569 144.756 28.9062 144.876 28.9062 145Z" fill="#DAD4EB"/>
<path d="M48.9062 145C48.9062 145.124 48.8569 145.244 48.769 145.331C48.681 145.419 48.5618 145.469 48.4375 145.469H45.4688V148.438C45.4688 148.562 45.4194 148.681 45.3315 148.769C45.2435 148.857 45.1243 148.906 45 148.906C44.8757 148.906 44.7565 148.857 44.6685 148.769C44.5806 148.681 44.5312 148.562 44.5312 148.438V145.469H41.5625C41.4382 145.469 41.319 145.419 41.231 145.331C41.1431 145.244 41.0938 145.124 41.0938 145C41.0938 144.876 41.1431 144.756 41.231 144.669C41.319 144.581 41.4382 144.531 41.5625 144.531H44.5312V141.562C44.5312 141.438 44.5806 141.319 44.6685 141.231C44.7565 141.143 44.8757 141.094 45 141.094C45.1243 141.094 45.2435 141.143 45.3315 141.231C45.4194 141.319 45.4688 141.438 45.4688 141.562V144.531H48.4375C48.5618 144.531 48.681 144.581 48.769 144.669C48.8569 144.756 48.9062 144.876 48.9062 145Z" fill="#DAD4EB"/>
<path d="M68.9062 145C68.9062 145.124 68.8569 145.244 68.769 145.331C68.681 145.419 68.5618 145.469 68.4375 145.469H65.4688V148.438C65.4688 148.562 65.4194 148.681 65.3315 148.769C65.2435 148.857 65.1243 148.906 65 148.906C64.8757 148.906 64.7565 148.857 64.6685 148.769C64.5806 148.681 64.5312 148.562 64.5312 148.438V145.469H61.5625C61.4382 145.469 61.319 145.419 61.231 145.331C61.1431 145.244 61.0938 145.124 61.0938 145C61.0938 144.876 61.1431 144.756 61.231 144.669C61.319 144.581 61.4382 144.531 61.5625 144.531H64.5312V141.562C64.5312 141.438 64.5806 141.319 64.6685 141.231C64.7565 141.143 64.8757 141.094 65 141.094C65.1243 141.094 65.2435 141.143 65.3315 141.231C65.4194 141.319 65.4688 141.438 65.4688 141.562V144.531H68.4375C68.5618 144.531 68.681 144.581 68.769 144.669C68.8569 144.756 68.9062 144.876 68.9062 145Z" fill="#DAD4EB"/>
<path d="M88.9062 145C88.9062 145.124 88.8569 145.244 88.769 145.331C88.681 145.419 88.5618 145.469 88.4375 145.469H85.4688V148.438C85.4688 148.562 85.4194 148.681 85.3315 148.769C85.2435 148.857 85.1243 148.906 85 148.906C84.8757 148.906 84.7565 148.857 84.6685 148.769C84.5806 148.681 84.5312 148.562 84.5312 148.438V145.469H81.5625C81.4382 145.469 81.319 145.419 81.231 145.331C81.1431 145.244 81.0938 145.124 81.0938 145C81.0938 144.876 81.1431 144.756 81.231 144.669C81.319 144.581 81.4382 144.531 81.5625 144.531H84.5312V141.562C84.5312 141.438 84.5806 141.319 84.6685 141.231C84.7565 141.143 84.8757 141.094 85 141.094C85.1243 141.094 85.2435 141.143 85.3315 141.231C85.4194 141.319 85.4688 141.438 85.4688 141.562V144.531H88.4375C88.5618 144.531 88.681 144.581 88.769 144.669C88.8569 144.756 88.9062 144.876 88.9062 145Z" fill="#DAD4EB"/>
<path d="M108.906 145C108.906 145.124 108.857 145.244 108.769 145.331C108.681 145.419 108.562 145.469 108.438 145.469H105.469V148.438C105.469 148.562 105.419 148.681 105.331 148.769C105.244 148.857 105.124 148.906 105 148.906C104.876 148.906 104.756 148.857 104.669 148.769C104.581 148.681 104.531 148.562 104.531 148.438V145.469H101.562C101.438 145.469 101.319 145.419 101.231 145.331C101.143 145.244 101.094 145.124 101.094 145C101.094 144.876 101.143 144.756 101.231 144.669C101.319 144.581 101.438 144.531 101.562 144.531H104.531V141.562C104.531 141.438 104.581 141.319 104.669 141.231C104.756 141.143 104.876 141.094 105 141.094C105.124 141.094 105.244 141.143 105.331 141.231C105.419 141.319 105.469 141.438 105.469 141.562V144.531H108.438C108.562 144.531 108.681 144.581 108.769 144.669C108.857 144.756 108.906 144.876 108.906 145Z" fill="#DAD4EB"/>
<path d="M128.906 145C128.906 145.124 128.857 145.244 128.769 145.331C128.681 145.419 128.562 145.469 128.438 145.469H125.469V148.438C125.469 148.562 125.419 148.681 125.331 148.769C125.244 148.857 125.124 148.906 125 148.906C124.876 148.906 124.756 148.857 124.669 148.769C124.581 148.681 124.531 148.562 124.531 148.438V145.469H121.562C121.438 145.469 121.319 145.419 121.231 145.331C121.143 145.244 121.094 145.124 121.094 145C121.094 144.876 121.143 144.756 121.231 144.669C121.319 144.581 121.438 144.531 121.562 144.531H124.531V141.562C124.531 141.438 124.581 141.319 124.669 141.231C124.756 141.143 124.876 141.094 125 141.094C125.124 141.094 125.244 141.143 125.331 141.231C125.419 141.319 125.469 141.438 125.469 141.562V144.531H128.438C128.562 144.531 128.681 144.581 128.769 144.669C128.857 144.756 128.906 144.876 128.906 145Z" fill="#DAD4EB"/>
<path d="M148.906 145C148.906 145.124 148.857 145.244 148.769 145.331C148.681 145.419 148.562 145.469 148.438 145.469H145.469V148.438C145.469 148.562 145.419 148.681 145.331 148.769C145.244 148.857 145.124 148.906 145 148.906C144.876 148.906 144.756 148.857 144.669 148.769C144.581 148.681 144.531 148.562 144.531 148.438V145.469H141.562C141.438 145.469 141.319 145.419 141.231 145.331C141.143 145.244 141.094 145.124 141.094 145C141.094 144.876 141.143 144.756 141.231 144.669C141.319 144.581 141.438 144.531 141.562 144.531H144.531V141.562C144.531 141.438 144.581 141.319 144.669 141.231C144.756 141.143 144.876 141.094 145 141.094C145.124 141.094 145.244 141.143 145.331 141.231C145.419 141.319 145.469 141.438 145.469 141.562V144.531H148.438C148.562 144.531 148.681 144.581 148.769 144.669C148.857 144.756 148.906 144.876 148.906 145Z" fill="#DAD4EB"/>
<path d="M168.906 145C168.906 145.124 168.857 145.244 168.769 145.331C168.681 145.419 168.562 145.469 168.438 145.469H165.469V148.438C165.469 148.562 165.419 148.681 165.331 148.769C165.244 148.857 165.124 148.906 165 148.906C164.876 148.906 164.756 148.857 164.669 148.769C164.581 148.681 164.531 148.562 164.531 148.438V145.469H161.562C161.438 145.469 161.319 145.419 161.231 145.331C161.143 145.244 161.094 145.124 161.094 145C161.094 144.876 161.143 144.756 161.231 144.669C161.319 144.581 161.438 144.531 161.562 144.531H164.531V141.562C164.531 141.438 164.581 141.319 164.669 141.231C164.756 141.143 164.876 141.094 165 141.094C165.124 141.094 165.244 141.143 165.331 141.231C165.419 141.319 165.469 141.438 165.469 141.562V144.531H168.438C168.562 144.531 168.681 144.581 168.769 144.669C168.857 144.756 168.906 144.876 168.906 145Z" fill="#DAD4EB"/>
</svg>
