<svg width="50" height="50" viewBox="0 0 50 50" fill="none" xmlns="http://www.w3.org/2000/svg">
<path d="M29.2434 20.9105H33.41V33.4105H20.91V29.2438H26.2954L15.1934 18.1397L18.1392 15.1938L29.2434 26.298V20.9105Z" fill="#669ABD"/>
<path fill-rule="evenodd" clip-rule="evenodd" d="M47.9163 25C47.9163 37.6563 37.6559 47.9167 24.9997 47.9167C12.3434 47.9167 2.08301 37.6563 2.08301 25C2.08301 12.3438 12.3434 2.08337 24.9997 2.08337C37.6559 2.08337 47.9163 12.3438 47.9163 25ZM43.7497 25C43.7497 27.4623 43.2647 29.9005 42.3224 32.1754C41.3801 34.4502 39.999 36.5172 38.2579 38.2583C36.5168 39.9994 34.4498 41.3805 32.175 42.3228C29.9001 43.2651 27.462 43.75 24.9997 43.75C22.5374 43.75 20.0992 43.2651 17.8244 42.3228C15.5495 41.3805 13.4825 39.9994 11.7414 38.2583C10.0003 36.5172 8.61921 34.4502 7.67693 32.1754C6.73466 29.9005 6.24967 27.4623 6.24967 25C6.24967 20.0272 8.22511 15.2581 11.7414 11.7418C15.2577 8.22548 20.0269 6.25004 24.9997 6.25004C29.9725 6.25004 34.7416 8.22548 38.2579 11.7418C41.7742 15.2581 43.7497 20.0272 43.7497 25Z" fill="#669ABD"/>
</svg>
