<svg width="30" height="30" viewBox="0 0 30 30" fill="none" xmlns="http://www.w3.org/2000/svg">
<g clip-path="url(#clip0_43_2808)">
<path fill-rule="evenodd" clip-rule="evenodd" d="M8.69816 3.2538C8.78349 2.89138 8.92325 2.35831 9.21173 1.83336C9.50589 1.29867 9.96177 0.756656 10.6769 0.399921C11.3895 0.0448106 12.2826 -0.0876446 13.3869 0.0586249C14.6058 0.221147 17.0542 0.624201 19.2174 1.72447C21.3927 2.83125 23.4308 4.73519 23.4308 7.90599C23.4308 9.5442 22.7969 11.3019 22.1826 12.4477C21.8876 12.9986 21.5374 13.5252 21.1863 13.8088C21.1059 13.8738 20.9913 13.955 20.8491 14.0119C20.459 15.2939 19.6825 16.424 18.6258 17.2479C17.569 18.0718 16.2836 18.5492 14.9452 18.6148C13.6069 18.6805 12.2809 18.3311 11.1486 17.6146C10.0163 16.898 9.13297 15.8493 8.61934 14.6116L8.59984 14.6149L8.31136 14.2646L8.31055 14.263L8.30892 14.2614L8.30486 14.2557L8.29104 14.2395C8.2215 14.1529 8.15457 14.0643 8.09033 13.9737C7.91486 13.7304 7.74949 13.4799 7.59464 13.2229C7.21271 12.5907 6.75197 11.6903 6.45699 10.6396C6.16282 9.5889 6.02793 8.35698 6.33672 7.08606C6.63739 5.84927 7.34679 4.63199 8.63153 3.54472L8.69816 3.2538ZM10.0187 13.7186C10.3711 14.7321 11.0479 15.6011 11.9442 16.1911C12.8405 16.781 13.9063 17.059 14.9766 16.9819C16.0469 16.9048 17.0619 16.4769 17.8644 15.7646C18.6669 15.0523 19.2121 14.0952 19.4157 13.0417L19.5075 13.0726C19.5042 13.0266 19.5026 12.9805 19.5026 12.9344C19.5026 11.5895 19.3157 10.651 19.1418 10.0659C19.1078 9.95202 19.0702 9.83927 19.0289 9.72785L18.9955 9.72948H18.963C18.3554 9.7426 17.7479 9.69633 17.1493 9.59134C15.754 9.35568 13.8647 8.76735 11.6398 7.40461C11.591 7.5135 11.5423 7.6362 11.4935 7.77272C11.3343 8.22372 11.2034 8.75922 11.0905 9.3248C10.9905 9.82293 10.9085 10.3243 10.8304 10.794L10.8004 10.9793C10.7167 11.4831 10.633 11.978 10.5355 12.3363C10.3648 12.9588 10.1909 13.4008 10.0187 13.7178V13.7186ZM8.881 12.2047C8.51397 11.5747 8.22577 10.9019 8.02288 10.2016C7.77991 9.33536 7.69053 8.39761 7.91643 7.47043C8.13584 6.56843 8.66647 5.62012 9.7578 4.72137C9.95445 4.58811 10.0438 4.40933 10.0682 4.36139V4.36057C10.1109 4.27272 10.1452 4.18103 10.1706 4.08673C10.1966 3.99409 10.2251 3.86732 10.2519 3.75356L10.2803 3.62598C10.3575 3.2985 10.4575 2.94176 10.6362 2.6159C10.8101 2.30061 11.0482 2.03083 11.4025 1.85449C11.7584 1.67653 12.3094 1.55464 13.1724 1.67003C14.3531 1.82686 16.574 2.2031 18.4803 3.17335C20.3737 4.13629 21.8055 5.59411 21.8055 7.90599C21.8055 8.9705 21.448 10.1813 21.0173 11.1361C20.936 10.5136 20.819 10.005 20.6988 9.6019C20.6149 9.31383 20.5104 9.03221 20.3859 8.75922C20.339 8.65806 20.2875 8.55909 20.2315 8.46262L20.2177 8.44068L20.2104 8.42849L20.2088 8.42605L19.9081 7.95962L19.3702 8.06769L19.3588 8.07013L19.28 8.0807C19.159 8.09417 19.0375 8.1023 18.9159 8.10507C18.4149 8.11476 17.9141 8.07557 17.4207 7.98806C16.11 7.76703 14.1841 7.16489 11.8446 5.60712L11.2758 5.22763L10.8053 5.72332C10.4176 6.13125 10.1544 6.68789 9.96177 7.2299C9.76512 7.78653 9.61641 8.40818 9.49696 9.00463C9.39792 9.51222 9.30798 10.0215 9.22717 10.5323L9.19629 10.7144C9.10934 11.2434 9.03864 11.6472 8.96714 11.9089C8.94045 12.0081 8.91174 12.1067 8.881 12.2047Z" fill="#669ABD"/>
<path fill-rule="evenodd" clip-rule="evenodd" d="M9.68142 19.3183C9.50914 18.9753 9.29705 18.552 8.93869 18.634C4.54736 19.6336 0 22.5191 0 25.5875V30H29.2539V25.5875C29.2539 23.1708 26.4325 20.8671 23.0886 19.5092L23.0846 19.5011C23.0809 19.4937 23.0771 19.4864 23.0732 19.4792L23.0464 19.4922C22.1582 19.1346 21.2335 18.8421 20.3152 18.634C19.9065 18.5406 19.4839 19.1029 19.2995 19.4548H9.7513C9.72855 19.4125 9.7058 19.3654 9.68142 19.3183ZM20.6427 20.3909C20.9978 20.4892 21.3513 20.5997 21.6999 20.7216C21.7096 20.9995 21.6885 21.3278 21.643 21.6626C21.5967 22.0093 21.5228 22.3516 21.422 22.6865H20.3152C20.1643 22.6866 20.0165 22.7287 19.8882 22.808C19.7599 22.8874 19.6562 23.0009 19.5887 23.1359L18.7761 24.7611C18.7196 24.8739 18.6901 24.9982 18.69 25.1243V26.7496C18.69 26.9651 18.7756 27.1718 18.928 27.3242C19.0804 27.4766 19.2871 27.5622 19.5026 27.5622H21.1278V25.937H20.3152V25.3161L20.8174 24.3117H23.0635L23.5656 25.3161V25.937H22.753V27.5622H24.3783C24.5938 27.5622 24.8005 27.4766 24.9529 27.3242C25.1053 27.1718 25.1909 26.9651 25.1909 26.7496V25.1243C25.1907 24.9982 25.1612 24.8739 25.1047 24.7611L24.2921 23.1359C24.2247 23.0009 24.121 22.8874 23.9927 22.808C23.8644 22.7287 23.7165 22.6866 23.5656 22.6865H23.1057C23.2061 22.2565 23.2735 21.8194 23.3072 21.379C24.0995 21.7536 24.8358 22.1835 25.4737 22.6483C27.0355 23.7876 27.6287 24.8537 27.6287 25.5875V28.3748H1.62522V25.5875C1.62522 24.8537 2.21842 23.7876 3.78026 22.6483C4.56524 22.0754 5.50217 21.557 6.50656 21.1279C6.53445 21.7755 6.63837 22.4175 6.81616 23.0408L6.82266 23.0636C6.33685 23.3709 5.97528 23.84 5.80181 24.3881C5.62834 24.9362 5.65412 25.5279 5.87461 26.0588C6.0951 26.5897 6.4961 27.0256 7.0068 27.2895C7.5175 27.5534 8.10503 27.6283 8.66563 27.5011C9.22623 27.3738 9.72383 27.0526 10.0705 26.594C10.4172 26.1355 10.5907 25.5692 10.5604 24.9951C10.5301 24.4211 10.2979 23.8762 9.90478 23.4567C9.51169 23.0373 8.98301 22.7702 8.41212 22.7028C8.30829 22.3628 8.2322 22.0149 8.18459 21.6626C8.13935 21.3476 8.12059 21.0293 8.12852 20.7111C8.13088 20.6503 8.13494 20.5896 8.14071 20.529C8.23822 20.499 8.33574 20.4697 8.43325 20.4421L8.77048 21.0808H20.2803L20.6427 20.3917V20.3909ZM8.12609 25.95C8.56327 25.95 8.93869 25.5924 8.93869 25.1252C8.93869 24.6587 8.56327 24.3004 8.12609 24.3004C7.6889 24.3004 7.31348 24.6579 7.31348 25.1252C7.31348 25.5916 7.6889 25.95 8.12609 25.95Z" fill="#669ABD"/>
</g>
<defs>
<clipPath id="clip0_43_2808">
<rect width="30" height="30" fill="white"/>
</clipPath>
</defs>
</svg>
