<svg width="36" height="36" viewBox="0 0 36 36" fill="none" xmlns="http://www.w3.org/2000/svg">
<path d="M15.375 19.5C15.375 19.9973 15.1775 20.4742 14.8258 20.8258C14.4742 21.1775 13.9973 21.375 13.5 21.375C13.0027 21.375 12.5258 21.1775 12.1742 20.8258C11.8225 20.4742 11.625 19.9973 11.625 19.5C11.625 19.0027 11.8225 18.5258 12.1742 18.1742C12.5258 17.8225 13.0027 17.625 13.5 17.625C13.9973 17.625 14.4742 17.8225 14.8258 18.1742C15.1775 18.5258 15.375 19.0027 15.375 19.5ZM22.5 17.625C22.0027 17.625 21.5258 17.8225 21.1742 18.1742C20.8225 18.5258 20.625 19.0027 20.625 19.5C20.625 19.9973 20.8225 20.4742 21.1742 20.8258C21.5258 21.1775 22.0027 21.375 22.5 21.375C22.9973 21.375 23.4742 21.1775 23.8258 20.8258C24.1775 20.4742 24.375 19.9973 24.375 19.5C24.375 19.0027 24.1775 18.5258 23.8258 18.1742C23.4742 17.8225 22.9973 17.625 22.5 17.625ZM33 18C33 26.28 26.28 33 18 33C9.72 33 3 26.28 3 18C3 9.72 9.72 3 18 3C26.28 3 33 9.72 33 18ZM15.99 6.18C18.09 9.66 21.9 12 26.25 12C26.94 12 27.615 11.925 28.26 11.82C26.16 8.34 22.35 6 18 6C17.31 6 16.635 6.075 15.99 6.18ZM6.63 14.205C9.21839 12.7376 11.1735 10.3658 12.12 7.545C9.53161 9.01237 7.57649 11.3842 6.63 14.205ZM30 18C30 16.83 29.82 15.705 29.505 14.64C28.455 14.865 27.375 15 26.25 15C24.0204 15.0005 21.8187 14.5039 19.8052 13.5465C17.7916 12.589 16.0169 11.1947 14.61 9.465C13.8224 11.3689 12.6516 13.0904 11.1704 14.5225C9.68921 15.9547 7.92928 17.0669 6 17.79C6.015 17.85 6 17.925 6 18C6 24.615 11.385 30 18 30C24.615 30 30 24.615 30 18Z" fill="#669ABD"/>
</svg>
