<svg width="40" height="41" viewBox="0 0 40 41" fill="none" xmlns="http://www.w3.org/2000/svg">
<g clip-path="url(#clip0_86_886)">
<path d="M20 40.5C8.956 40.5 0 31.544 0 20.5C0 9.456 8.956 0.5 20 0.5C31.044 0.5 40 9.456 40 20.5C40 31.544 31.044 40.5 20 40.5Z" fill="url(#paint0_linear_86_886)"/>
<path d="M19.9997 9.30799C23.6437 9.30799 24.0758 9.31999 25.5158 9.38799C26.8477 9.44799 27.5717 9.67199 28.0517 9.85999C28.6877 10.108 29.1438 10.404 29.6198 10.88C30.0958 11.356 30.3918 11.812 30.6397 12.448C30.8278 12.928 31.0477 13.652 31.1117 14.984C31.1757 16.424 31.1917 16.856 31.1917 20.5C31.1917 24.144 31.1797 24.576 31.1117 26.016C31.0517 27.348 30.8278 28.072 30.6397 28.552C30.3918 29.188 30.0958 29.644 29.6198 30.12C29.1438 30.596 28.6877 30.892 28.0517 31.14C27.5717 31.328 26.8477 31.548 25.5158 31.612C24.0758 31.676 23.6437 31.692 19.9997 31.692C16.3557 31.692 15.9237 31.68 14.4837 31.612C13.1518 31.552 12.4278 31.328 11.9478 31.14C11.3117 30.892 10.8557 30.596 10.3797 30.12C9.90375 29.644 9.60775 29.188 9.35975 28.552C9.17175 28.072 8.95175 27.348 8.88775 26.016C8.82375 24.576 8.80775 24.144 8.80775 20.5C8.80775 16.856 8.81975 16.424 8.88775 14.984C8.94775 13.652 9.17175 12.928 9.35975 12.448C9.60775 11.812 9.90375 11.356 10.3797 10.88C10.8557 10.404 11.3117 10.108 11.9478 9.85999C12.4278 9.67199 13.1518 9.45199 14.4837 9.38799C15.9237 9.31999 16.3557 9.30799 19.9997 9.30799ZM19.9997 6.84799C16.2917 6.84799 15.8277 6.86399 14.3717 6.93199C12.9197 6.99999 11.9277 7.22799 11.0557 7.56799C10.1597 7.91199 9.39575 8.37999 8.63975 9.13999C7.87975 9.89999 7.41575 10.66 7.06375 11.56C6.72775 12.428 6.49575 13.42 6.42775 14.876C6.35975 16.332 6.34375 16.796 6.34375 20.504C6.34375 24.212 6.35975 24.676 6.42775 26.132C6.49575 27.584 6.72375 28.576 7.06375 29.448C7.41175 30.34 7.87975 31.104 8.63975 31.86C9.39975 32.62 10.1597 33.084 11.0597 33.436C11.9277 33.772 12.9197 34.004 14.3757 34.072C15.8317 34.14 16.2957 34.156 20.0037 34.156C23.7118 34.156 24.1757 34.14 25.6317 34.072C27.0837 34.004 28.0757 33.776 28.9477 33.436C29.8397 33.088 30.6038 32.62 31.3598 31.86C32.1198 31.1 32.5838 30.34 32.9358 29.44C33.2718 28.572 33.5037 27.58 33.5717 26.124C33.6397 24.668 33.6558 24.204 33.6558 20.496C33.6558 16.788 33.6397 16.324 33.5717 14.868C33.5037 13.416 33.2758 12.424 32.9358 11.552C32.5878 10.66 32.1198 9.89599 31.3598 9.13999C30.5998 8.37999 29.8398 7.91599 28.9398 7.56399C28.0718 7.22799 27.0797 6.99599 25.6237 6.92799C24.1717 6.86399 23.7077 6.84799 19.9997 6.84799Z" fill="white"/>
<path d="M19.9993 13.488C16.1273 13.488 12.9873 16.628 12.9873 20.5C12.9873 24.372 16.1273 27.512 19.9993 27.512C23.8713 27.512 27.0113 24.372 27.0113 20.5C27.0113 16.628 23.8713 13.488 19.9993 13.488ZM19.9993 25.052C17.4873 25.052 15.4473 23.016 15.4473 20.5C15.4473 17.984 17.4873 15.948 19.9993 15.948C22.5113 15.948 24.5513 17.984 24.5513 20.5C24.5513 23.016 22.5113 25.052 19.9993 25.052Z" fill="white"/>
<path d="M27.2875 14.852C28.1932 14.852 28.9275 14.1177 28.9275 13.212C28.9275 12.3062 28.1932 11.572 27.2875 11.572C26.3817 11.572 25.6475 12.3062 25.6475 13.212C25.6475 14.1177 26.3817 14.852 27.2875 14.852Z" fill="white"/>
</g>
<defs>
<linearGradient id="paint0_linear_86_886" x1="5.85786" y1="34.6421" x2="34.1421" y2="6.35786" gradientUnits="userSpaceOnUse">
<stop stop-color="#FFD521"/>
<stop offset="0.0551048" stop-color="#FFD020"/>
<stop offset="0.1241" stop-color="#FEC01E"/>
<stop offset="0.2004" stop-color="#FCA71B"/>
<stop offset="0.2821" stop-color="#FA8316"/>
<stop offset="0.3681" stop-color="#F85510"/>
<stop offset="0.4563" stop-color="#F51E09"/>
<stop offset="0.5" stop-color="#F30005"/>
<stop offset="0.5035" stop-color="#F20007"/>
<stop offset="0.5966" stop-color="#E1003B"/>
<stop offset="0.6879" stop-color="#D30067"/>
<stop offset="0.7757" stop-color="#C70088"/>
<stop offset="0.8589" stop-color="#BF00A0"/>
<stop offset="0.9357" stop-color="#BB00AF"/>
<stop offset="1" stop-color="#B900B4"/>
</linearGradient>
<clipPath id="clip0_86_886">
<rect width="40" height="40" fill="white" transform="translate(0 0.5)"/>
</clipPath>
</defs>
</svg>
