<svg width="36" height="36" viewBox="0 0 36 36" fill="none" xmlns="http://www.w3.org/2000/svg">
<g clip-path="url(#clip0_58_871)">
<path fill-rule="evenodd" clip-rule="evenodd" d="M14.6251 13.5C15.2464 13.5 15.7501 14.0037 15.7501 14.625V33.1939L15.75 33.2004C15.7492 33.2728 15.7629 33.3446 15.7902 33.4117C15.8175 33.4788 15.858 33.5397 15.9092 33.5909C15.9604 33.6421 16.0213 33.6826 16.0884 33.7099C16.1555 33.7372 16.2273 33.7509 16.2997 33.7501L16.3126 33.7499L16.3255 33.7501C16.3979 33.7509 16.4698 33.7372 16.5368 33.7099C16.6039 33.6826 16.6648 33.6421 16.716 33.5909C16.7672 33.5397 16.8077 33.4788 16.835 33.4117C16.8624 33.3446 16.876 33.2728 16.8752 33.2004C16.8681 32.5791 17.366 32.0697 17.9872 32.0626C18.6085 32.0555 19.1179 32.5533 19.125 33.1746C19.1293 33.5468 19.0591 33.9161 18.9186 34.2608C18.7782 34.6055 18.5702 34.9187 18.307 35.1819C18.0438 35.4451 17.7307 35.6531 17.3859 35.7935C17.0452 35.9324 16.6805 36.0026 16.3126 36C15.9448 36.0026 15.58 35.9324 15.2393 35.7935C14.8946 35.6531 14.5814 35.4451 14.3182 35.1819C14.055 34.9187 13.847 34.6055 13.7066 34.2608C13.567 33.9184 13.4968 33.5516 13.5001 33.1819V14.625C13.5001 14.0037 14.0038 13.5 14.6251 13.5Z" fill="#669ABD"/>
<path fill-rule="evenodd" clip-rule="evenodd" d="M21.3751 13.5C21.9964 13.5 22.5001 14.0037 22.5001 14.625V33.1819C22.5034 33.5517 22.4332 33.9184 22.2937 34.2608C22.1532 34.6055 21.9452 34.9187 21.682 35.1819C21.4188 35.4451 21.1057 35.6531 20.761 35.7935C20.4202 35.9324 20.0555 36.0026 19.6876 36C19.3198 36.0026 18.955 35.9324 18.6143 35.7935C18.2696 35.6531 17.9564 35.4451 17.6932 35.1819C17.43 34.9187 17.222 34.6055 17.0816 34.2608C16.942 33.9184 16.8718 33.5516 16.8751 33.1819V23.625C16.8751 23.0037 17.3788 22.5 18.0001 22.5C18.6214 22.5 19.1251 23.0037 19.1251 23.625V33.1939L19.125 33.2004C19.1242 33.2728 19.1379 33.3446 19.1652 33.4117C19.1925 33.4788 19.233 33.5397 19.2842 33.5909C19.3354 33.6421 19.3963 33.6826 19.4634 33.7099C19.5305 33.7372 19.6023 33.7509 19.6747 33.7501L19.6876 33.7499L19.7005 33.7501C19.7729 33.7509 19.8448 33.7372 19.9118 33.7099C19.9789 33.6826 20.0398 33.6421 20.091 33.5909C20.1422 33.5397 20.1827 33.4788 20.21 33.4117C20.2374 33.3446 20.251 33.2728 20.2502 33.2004L20.2501 33.1939V14.625C20.2501 14.0037 20.7538 13.5 21.3751 13.5Z" fill="#669ABD"/>
<path fill-rule="evenodd" clip-rule="evenodd" d="M14.6251 11.25C14.0284 11.25 13.4561 11.4871 13.0341 11.909C12.6122 12.331 12.3751 12.9033 12.3751 13.5V19.6942L12.375 19.7009C12.3742 19.7732 12.3878 19.845 12.4151 19.912C12.4424 19.9791 12.4828 20.04 12.534 20.0911C12.5852 20.1423 12.646 20.1827 12.7131 20.21C12.7801 20.2373 12.8519 20.2509 12.9243 20.2501L12.9376 20.2499L12.951 20.2501C13.0233 20.2509 13.0951 20.2373 13.1622 20.21C13.2292 20.1827 13.2901 20.1423 13.3412 20.0911C13.3924 20.04 13.4328 19.9791 13.4601 19.912C13.4874 19.845 13.5011 19.7732 13.5002 19.7009L13.5001 19.6942V13.5C13.5001 12.8787 14.0038 12.375 14.6251 12.375C15.2464 12.375 15.7501 12.8787 15.7501 13.5V19.6817C15.7535 20.0514 15.6834 20.4182 15.5439 20.7607C15.4035 21.1056 15.1955 21.4188 14.9322 21.6821C14.669 21.9454 14.3557 22.1534 14.0108 22.2938C13.6701 22.4326 13.3054 22.5027 12.9376 22.5C12.5698 22.5027 12.2051 22.4326 11.8644 22.2938C11.5196 22.1534 11.2063 21.9454 10.943 21.6821C10.6797 21.4188 10.4717 21.1056 10.3313 20.7607C10.1918 20.4182 10.1217 20.0514 10.1251 19.6817V13.5C10.1251 12.3065 10.5992 11.1619 11.4431 10.318C12.2871 9.47411 13.4316 9 14.6251 9H21.3751C22.5686 9 23.7132 9.4741 24.5571 10.318C25.401 11.1619 25.8751 12.3065 25.8751 13.5V19.6817C25.8785 20.0514 25.8084 20.4182 25.6689 20.7607C25.5285 21.1056 25.3205 21.4188 25.0572 21.6821C24.794 21.9454 24.4807 22.1534 24.1358 22.2938C23.7951 22.4326 23.4304 22.5027 23.0626 22.5C22.6948 22.5027 22.3301 22.4326 21.9894 22.2938C21.6446 22.1534 21.3313 21.9454 21.068 21.6821C20.8047 21.4188 20.5967 21.1056 20.4563 20.7607C20.3168 20.4182 20.2467 20.0514 20.2501 19.6817V13.5C20.2501 12.8787 20.7538 12.375 21.3751 12.375C21.9964 12.375 22.5001 12.8787 22.5001 13.5V19.6942L22.5 19.7009C22.4992 19.7732 22.5128 19.845 22.5401 19.912C22.5674 19.9791 22.6078 20.04 22.659 20.0911C22.7102 20.1423 22.771 20.1827 22.8381 20.21C22.9051 20.2373 22.9769 20.2509 23.0493 20.2501L23.0626 20.2499L23.076 20.2501C23.1483 20.2509 23.2201 20.2373 23.2872 20.21C23.3542 20.1827 23.4151 20.1423 23.4663 20.0911C23.5174 20.04 23.5578 19.9791 23.5851 19.912C23.6124 19.845 23.6261 19.7732 23.6252 19.7009L23.6251 19.6942V13.5C23.6251 12.9033 23.3881 12.331 22.9661 11.909C22.5442 11.4871 21.9719 11.25 21.3751 11.25H14.6251Z" fill="#669ABD"/>
<path fill-rule="evenodd" clip-rule="evenodd" d="M18 2.25C17.068 2.25 16.3125 3.00552 16.3125 3.9375C16.3125 4.86948 17.068 5.625 18 5.625C18.932 5.625 19.6875 4.86948 19.6875 3.9375C19.6875 3.00552 18.932 2.25 18 2.25ZM14.0625 3.9375C14.0625 1.76288 15.8254 0 18 0C20.1746 0 21.9375 1.76288 21.9375 3.9375C21.9375 6.11212 20.1746 7.875 18 7.875C15.8254 7.875 14.0625 6.11212 14.0625 3.9375Z" fill="#669ABD"/>
</g>
<defs>
<clipPath id="clip0_58_871">
<rect width="36" height="36" fill="white"/>
</clipPath>
</defs>
</svg>
