<svg width="34" height="45" viewBox="0 0 34 45" fill="none" xmlns="http://www.w3.org/2000/svg">
<path fill-rule="evenodd" clip-rule="evenodd" d="M32.3052 0.923004H0.923005V44.0735H32.3052V0.923004ZM0 0V44.9965H33.2282V0H0Z" fill="#242424"/>
<path d="M29.4199 0.923004H30.3429V44.0735H29.4199V0.923004Z" fill="#242424"/>
<path d="M2.88477 0.923004H3.80777V44.0735H2.88477V0.923004Z" fill="#242424"/>
<path fill-rule="evenodd" clip-rule="evenodd" d="M17.5379 21.5176L3.80819 0.923032L4.57617 0.411041L18.3059 21.0056L17.5379 21.5176Z" fill="#242424"/>
<path fill-rule="evenodd" clip-rule="evenodd" d="M29.4431 26.2764L12.2321 0.926255L12.9958 0.407801L30.2067 25.758L29.4431 26.2764Z" fill="#242424"/>
<path fill-rule="evenodd" clip-rule="evenodd" d="M17.94 21.056L3.80648 35.8241L3.13965 35.1859L17.2732 20.4178L17.94 21.056Z" fill="#242424"/>
<path fill-rule="evenodd" clip-rule="evenodd" d="M30.0468 26.1019L12.3495 44.9929L11.6759 44.3618L29.3732 25.4709L30.0468 26.1019Z" fill="#242424"/>
</svg>
