<svg width="36" height="49" viewBox="0 0 36 49" fill="none" xmlns="http://www.w3.org/2000/svg">
<path fill-rule="evenodd" clip-rule="evenodd" d="M34.4588 1.48258H0.984538V47.5097H34.4588V1.48258ZM0 0.498047V48.4943H35.4434V0.498047H0Z" fill="white"/>
<path d="M31.3809 1.48242H32.3654V47.5096H31.3809V1.48242Z" fill="white"/>
<path d="M3.07715 1.48242H4.06169V47.5096H3.07715V1.48242Z" fill="white"/>
<path fill-rule="evenodd" clip-rule="evenodd" d="M18.7067 23.4502L4.06167 1.48265L4.88086 0.936523L19.5259 22.904L18.7067 23.4502Z" fill="white"/>
<path fill-rule="evenodd" clip-rule="evenodd" d="M31.4061 28.5265L13.0477 1.48631L13.8623 0.933295L32.2206 27.9735L31.4061 28.5265Z" fill="white"/>
<path fill-rule="evenodd" clip-rule="evenodd" d="M19.1357 22.9574L4.05992 38.71L3.34863 38.0293L18.4244 22.2767L19.1357 22.9574Z" fill="white"/>
<path fill-rule="evenodd" clip-rule="evenodd" d="M32.0495 28.3405L13.1723 48.4908L12.4538 47.8177L31.331 27.6674L32.0495 28.3405Z" fill="white"/>
</svg>
