<svg width="36" height="36" viewBox="0 0 36 36" fill="none" xmlns="http://www.w3.org/2000/svg">
<g clip-path="url(#clip0_58_825)">
<path d="M14.25 6C14.25 5.60218 14.092 5.22064 13.8107 4.93934C13.5294 4.65804 13.1478 4.5 12.75 4.5C12.3522 4.5 11.9706 4.65804 11.6893 4.93934C11.408 5.22064 11.25 5.60218 11.25 6C11.25 8.7405 10.566 11.5125 9.159 14.3295C8.481 15.6825 7.527 16.7295 6.474 18.183C5.499 19.527 4.5 21.168 4.5 23.25C4.5 24.6424 5.05312 25.9777 6.03769 26.9623C7.02226 27.9469 8.35761 28.5 9.75 28.5C10.608 28.5 12.018 27.936 12.8295 28.341C13.4265 28.641 13.8135 29.331 14.265 29.811C15.045 30.636 16.161 31.5 18 31.5C19.839 31.5 20.955 30.636 21.735 29.8095C22.1775 29.3415 22.578 28.638 23.1705 28.341C23.9805 27.936 25.3905 28.5 26.25 28.5C27.6424 28.5 28.9777 27.9469 29.9623 26.9623C30.9469 25.9777 31.5 24.6424 31.5 23.25C31.5 21.1695 30.5025 19.527 29.526 18.183C28.473 16.731 27.519 15.6825 26.841 14.328C25.434 11.514 24.75 8.742 24.75 6C24.75 5.60218 24.592 5.22064 24.3107 4.93934C24.0294 4.65804 23.6478 4.5 23.25 4.5C22.8522 4.5 22.4706 4.65804 22.1893 4.93934C21.908 5.22064 21.75 5.60218 21.75 6C21.75 9.2595 22.566 12.4875 24.159 15.6705C24.981 17.3175 26.277 18.813 27.099 19.9455C27.999 21.183 28.5 22.1655 28.5 23.25C28.5 23.8467 28.2629 24.419 27.841 24.841C27.419 25.2629 26.8467 25.5 26.25 25.5C24.726 25.5 23.2995 24.9225 21.8295 25.659C20.8665 26.139 20.2695 26.991 19.5525 27.7515C19.0935 28.239 18.7125 28.5 18 28.5C17.289 28.5 16.905 28.239 16.4475 27.753C15.735 26.9955 15.1275 26.136 14.1705 25.659C12.7005 24.924 11.2755 25.5 9.75 25.5C9.45453 25.5 9.16194 25.4418 8.88896 25.3287C8.61598 25.2157 8.36794 25.0499 8.15901 24.841C7.95008 24.6321 7.78434 24.384 7.67127 24.111C7.5582 23.8381 7.5 23.5455 7.5 23.25C7.5 22.167 8.0025 21.183 8.901 19.944C9.723 18.8115 11.019 17.3175 11.841 15.6705C13.434 12.4875 14.25 9.2595 14.25 6Z" fill="#669ABD"/>
</g>
<defs>
<clipPath id="clip0_58_825">
<rect width="36" height="36" fill="white"/>
</clipPath>
</defs>
</svg>
