<svg width="24" height="24" viewBox="0 0 24 24" fill="none" xmlns="http://www.w3.org/2000/svg">
<g clip-path="url(#clip0_56_581)">
<path d="M16.6025 11.85L14.1215 5.59L12.0295 9.25L9.93752 5.59L7.45652 11.852H6.73952V12.793H10.4755V11.852H9.92252L10.4605 10.297L12.0295 12.867L13.5985 10.297L14.1365 11.852H13.5835V12.793H17.3345V11.852L16.6025 11.85ZM21.9375 9.938C21.9382 8.63274 21.6816 7.34015 21.1824 6.13412C20.6832 4.92809 19.9512 3.83227 19.0282 2.90931C18.1053 1.98635 17.0094 1.25435 15.8034 0.755148C14.5974 0.255949 13.3048 -0.000655939 11.9995 1.25918e-06C6.51552 1.25918e-06 2.06152 4.453 2.06152 9.938C2.06152 12.688 3.18252 15.168 4.97552 16.961C5.0878 17.0743 5.23123 17.1516 5.38757 17.1831C5.5439 17.2146 5.70609 17.199 5.85349 17.1381C6.0009 17.0772 6.12686 16.9738 6.21536 16.8412C6.30387 16.7085 6.35092 16.5525 6.35052 16.393C6.35086 16.175 6.26494 15.9658 6.11152 15.811C4.55831 14.2515 3.68787 12.139 3.69152 9.938C3.69152 5.35 7.41152 1.614 11.9995 1.614C16.5875 1.614 20.3235 5.35 20.3235 9.938C20.326 11.0316 20.112 12.1149 19.6939 13.1254C19.2758 14.136 18.6619 15.0538 17.8875 15.826L10.8635 22.849L11.9995 24L19.0385 16.961C19.9608 16.0393 20.6917 14.9442 21.1893 13.739C21.6868 12.5337 21.9411 11.2419 21.9375 9.938Z" fill="#669ABD"/>
</g>
<defs>
<clipPath id="clip0_56_581">
<rect width="24" height="24" fill="white"/>
</clipPath>
</defs>
</svg>
