<svg width="221" height="167" viewBox="0 0 221 167" fill="none" xmlns="http://www.w3.org/2000/svg">
<path fill-rule="evenodd" clip-rule="evenodd" d="M218.126 114.227C216.629 109.62 214.035 105.398 210.425 101.58C206.643 97.5904 201.673 94.5029 195.51 92.2704C189.341 90.0557 181.42 88.9335 171.659 88.9335H158.412C159.992 72.6292 165.798 58.7532 175.845 47.282C185.873 35.8464 199.779 25.7823 217.556 17.1492L206.773 0.44104C183.368 10.4101 163.34 24.9926 146.704 44.2538C130.073 63.5329 121.79 82.6338 121.79 101.58C121.79 121.934 126.593 137.9 136.277 149.425C145.961 160.949 159.831 166.691 177.863 166.691C189.305 166.691 199.245 162.873 207.7 155.244C216.143 147.626 220.376 138.702 220.376 128.525C220.376 123.614 219.634 118.835 218.126 114.227ZM97.0245 114.227C95.5163 109.62 92.9275 105.398 89.3116 101.58C85.5413 97.5904 80.5657 94.5029 74.3966 92.2704C68.2394 90.0557 60.3189 88.9335 50.5517 88.9335H37.2992C38.8845 72.6292 44.6854 58.7532 54.7257 47.282C64.7601 35.8464 78.6776 25.7823 96.4426 17.1492L85.666 0.44104C62.2545 10.4101 42.2391 24.9926 25.5963 44.2538C8.96539 63.5329 0.688477 82.6338 0.688477 101.58C0.688477 121.934 5.48001 137.9 15.17 149.425C24.8422 160.949 38.7124 166.691 56.7564 166.691C68.1921 166.691 78.1431 162.873 86.5981 155.244C95.0413 147.626 99.2688 138.702 99.2688 128.525C99.2688 123.614 98.5148 118.835 97.0245 114.227Z" fill="#78ACCE"/>
</svg>
