<svg width="50" height="50" viewBox="0 0 50 50" fill="none" xmlns="http://www.w3.org/2000/svg">
<path d="M40.625 13.2812H5.46875V9.375C5.46875 8.7534 5.22182 8.15726 4.78228 7.71772C4.34274 7.27818 3.7466 7.03125 3.125 7.03125C2.5034 7.03125 1.90726 7.27818 1.46772 7.71772C1.02818 8.15726 0.78125 8.7534 0.78125 9.375V40.625C0.78125 41.2466 1.02818 41.8427 1.46772 42.2823C1.90726 42.7218 2.5034 42.9688 3.125 42.9688C3.7466 42.9688 4.34274 42.7218 4.78228 42.2823C5.22182 41.8427 5.46875 41.2466 5.46875 40.625V35.1562H44.5312V40.625C44.5312 41.2466 44.7782 41.8427 45.2177 42.2823C45.6573 42.7218 46.2534 42.9688 46.875 42.9688C47.4966 42.9688 48.0927 42.7218 48.5323 42.2823C48.9718 41.8427 49.2188 41.2466 49.2188 40.625V21.875C49.2162 19.5966 48.3099 17.4122 46.6988 15.8012C45.0878 14.1901 42.9034 13.2838 40.625 13.2812ZM17.9688 30.4688H5.46875V17.9688H17.9688V30.4688ZM44.5312 30.4688H22.6562V17.9688H40.625C41.661 17.9688 42.6546 18.3803 43.3871 19.1129C44.1197 19.8454 44.5312 20.839 44.5312 21.875V30.4688Z" fill="#669ABD"/>
</svg>
