<svg width="36" height="36" viewBox="0 0 36 36" fill="none" xmlns="http://www.w3.org/2000/svg">
<path d="M23.7507 10.6589C23.6402 10.7619 23.5515 10.8861 23.49 11.0241C23.4285 11.1621 23.3955 11.311 23.3928 11.4621C23.3901 11.6131 23.4179 11.7632 23.4745 11.9033C23.5311 12.0434 23.6153 12.1706 23.7221 12.2774C23.829 12.3843 23.9562 12.4685 24.0963 12.5251C24.2364 12.5816 24.3864 12.6094 24.5375 12.6068C24.6885 12.6041 24.8375 12.571 24.9755 12.5096C25.1135 12.4481 25.2377 12.3594 25.3407 12.2489L23.7507 10.6589ZM29.2047 11.1584C29.3077 11.2689 29.4319 11.3576 29.5699 11.4191C29.7079 11.4805 29.8569 11.5136 30.0079 11.5163C30.159 11.5189 30.309 11.4911 30.4491 11.4346C30.5892 11.378 30.7164 11.2938 30.8233 11.1869C30.9301 11.0801 31.0143 10.9529 31.0709 10.8128C31.1275 10.6727 31.1553 10.5226 31.1526 10.3716C31.1499 10.2205 31.1169 10.0716 31.0554 9.93357C30.9939 9.79557 30.9052 9.67137 30.7947 9.56838L29.2047 11.1584ZM26.4297 5.20488C26.3259 5.09748 26.2017 5.01183 26.0644 4.95294C25.9271 4.89405 25.7795 4.86308 25.6301 4.86185C25.4807 4.86063 25.3326 4.88916 25.1944 4.94579C25.0562 5.00242 24.9306 5.08602 24.825 5.1917C24.7194 5.29738 24.636 5.42302 24.5794 5.56131C24.5229 5.69959 24.4946 5.84774 24.4959 5.99712C24.4973 6.14649 24.5284 6.2941 24.5874 6.43133C24.6464 6.56855 24.7322 6.69265 24.8397 6.79638L26.4297 5.20488ZM5.2032 29.2049C5.0957 29.3086 5.00994 29.4327 4.95092 29.5699C4.89189 29.7072 4.86079 29.8548 4.85942 30.0041C4.85805 30.1535 4.88645 30.3017 4.94295 30.44C4.99945 30.5782 5.08293 30.7039 5.1885 30.8096C5.29408 30.9152 5.41965 30.9988 5.55788 31.0555C5.69611 31.1121 5.84424 31.1406 5.99362 31.1394C6.14299 31.1382 6.29063 31.1072 6.42791 31.0483C6.56519 30.9894 6.68937 30.9038 6.7932 30.7964L5.2032 29.2064V29.2049ZM24.8382 22.0694C24.9419 22.1769 25.066 22.2626 25.2033 22.3217C25.3405 22.3807 25.4881 22.4118 25.6375 22.4132C25.7868 22.4145 25.935 22.3861 26.0733 22.3296C26.2116 22.2731 26.3372 22.1897 26.4429 22.0841C26.5486 21.9785 26.6322 21.8529 26.6888 21.7147C26.7454 21.5765 26.774 21.4283 26.7727 21.279C26.7715 21.1296 26.7405 20.982 26.6816 20.8447C26.6227 20.7074 26.5371 20.5832 26.4297 20.4794L24.8382 22.0694ZM15.5247 9.56988C15.421 9.46238 15.2969 9.37662 15.1596 9.3176C15.0224 9.25857 14.8748 9.22747 14.7254 9.2261C14.5761 9.22473 14.4279 9.25313 14.2896 9.30963C14.1513 9.36613 14.0257 9.4496 13.92 9.55518C13.8143 9.66076 13.7307 9.78633 13.6741 9.92456C13.6175 10.0628 13.5889 10.2109 13.5902 10.3603C13.5914 10.5097 13.6224 10.6573 13.6813 10.7946C13.7402 10.9319 13.8258 11.0561 13.9332 11.1599L15.5232 9.56988H15.5247ZM21.5697 25.3424C21.6727 25.4529 21.7969 25.5416 21.9349 25.6031C22.0729 25.6645 22.2219 25.6976 22.3729 25.7003C22.524 25.7029 22.674 25.6751 22.8141 25.6186C22.9542 25.562 23.0814 25.4778 23.1883 25.3709C23.2951 25.2641 23.3793 25.1369 23.4359 24.9968C23.4925 24.8567 23.5203 24.7066 23.5176 24.5556C23.5149 24.4045 23.4819 24.2556 23.4204 24.1176C23.3589 23.9796 23.2702 23.8554 23.1597 23.7524L21.5697 25.3424ZM18.8322 19.4234C18.6189 19.2247 18.3369 19.1165 18.0454 19.1216C17.754 19.1268 17.4759 19.2448 17.2698 19.4509C17.0636 19.6571 16.9456 19.9351 16.9404 20.2266C16.9353 20.518 17.0435 20.8001 17.2422 21.0134L18.8322 19.4234ZM19.1142 27.7964C19.3263 28.0014 19.6104 28.1149 19.9054 28.1125C20.2004 28.1101 20.4826 27.9919 20.6913 27.7834C20.8999 27.5749 21.0184 27.2928 21.0211 26.9979C21.0238 26.7029 20.9105 26.4187 20.7057 26.2064L19.1157 27.7964H19.1142ZM18.2367 23.7374C18.1337 23.6269 18.0095 23.5382 17.8715 23.4767C17.7335 23.4152 17.5845 23.3822 17.4335 23.3795C17.2824 23.3768 17.1324 23.4046 16.9923 23.4612C16.8522 23.5178 16.725 23.602 16.6181 23.7088C16.5113 23.8157 16.4271 23.9429 16.3705 24.083C16.3139 24.2231 16.2861 24.3731 16.2888 24.5242C16.2915 24.6752 16.3245 24.8242 16.386 24.9622C16.4475 25.1002 16.5362 25.2244 16.6467 25.3274L18.2367 23.7374ZM21.6912 10.1909L25.8117 14.3114L27.4017 12.7214L23.2797 8.59938L21.6912 10.1909ZM25.8117 19.5089L19.3872 25.9334L20.9772 27.5234L27.4032 21.1004L25.8117 19.5089ZM10.0677 16.6139L16.4937 10.1909L14.9037 8.60088L8.4777 15.0239L10.0677 16.6139ZM10.0692 25.9334C8.83372 24.6976 8.13966 23.0218 8.13966 21.2744C8.13966 19.527 8.83372 17.8511 10.0692 16.6154L8.4792 15.0254C6.82191 16.683 5.89089 18.9311 5.89089 21.2751C5.89089 23.6192 6.82191 25.8672 8.4792 27.5249L10.0692 25.9334ZM19.3872 25.9334C18.1515 27.1689 16.4756 27.8629 14.7282 27.8629C12.9808 27.8629 11.3049 27.1689 10.0692 25.9334L8.4792 27.5249C10.1369 29.1822 12.3849 30.1117 14.729 30.1117C17.073 30.1117 19.321 29.1807 20.9787 27.5234L19.3872 25.9334ZM25.8117 14.3114C26.3892 14.8889 26.7777 15.2789 27.0552 15.6014C27.3252 15.9164 27.4287 16.0994 27.4797 16.2404L29.5947 15.4709C29.4117 14.9684 29.1147 14.5469 28.7622 14.1359C28.4157 13.7324 27.9552 13.2749 27.4017 12.7214L25.8117 14.3114ZM27.4032 21.1004C27.9582 20.5454 28.4157 20.0879 28.7622 19.6859C29.1162 19.2734 29.4117 18.8534 29.5947 18.3509L27.4797 17.5814C27.4287 17.7224 27.3252 17.9054 27.0552 18.2189C26.7777 18.5429 26.3892 18.9314 25.8117 19.5089L27.4017 21.0989L27.4032 21.1004ZM27.4797 16.2404C27.6372 16.6724 27.6372 17.1479 27.4797 17.5814L29.5947 18.3509C29.9322 17.4209 29.9322 16.4009 29.5947 15.4709L27.4797 16.2404ZM23.2797 8.59938C22.7277 8.04738 22.2687 7.58538 21.8652 7.23888C21.4542 6.88638 21.0327 6.58938 20.5302 6.40638L19.7607 8.52138C19.9017 8.57238 20.0847 8.67588 20.3997 8.94588C20.7222 9.22338 21.1122 9.61188 21.6897 10.1894L23.2797 8.59938ZM16.4922 10.1894C16.908 9.7604 17.3383 9.34566 17.7822 8.94588C18.0972 8.67588 18.2787 8.57238 18.4197 8.52138L17.6502 6.40638C17.1477 6.58938 16.7277 6.88638 16.3152 7.23888C15.9132 7.58538 15.4542 8.04588 14.9007 8.59788L16.4922 10.1894ZM20.5302 6.40638C19.6 6.06785 18.5804 6.06785 17.6502 6.40638L18.4197 8.52138C18.8532 8.36388 19.3287 8.36388 19.7607 8.52138L20.5302 6.40638ZM25.3407 12.2489L28.6137 8.97738L27.0237 7.38738L23.7507 10.6589L25.3407 12.2489ZM27.0222 8.97738L29.2047 11.1584L30.7947 9.56838L28.6137 7.38588L27.0237 8.97588L27.0222 8.97738ZM28.6122 7.38738L26.4327 5.20488L24.8427 6.79488L27.0237 8.97588L28.6122 7.38738ZM8.4777 25.9304L5.2032 29.2049L6.7947 30.7949L10.0677 27.5234L8.4777 25.9304ZM26.4327 20.4764L15.5247 9.56988L13.9332 11.1599L24.8427 22.0679L26.4327 20.4779V20.4764ZM23.1597 23.7479L18.8322 19.4204L17.2422 21.0104L21.5697 25.3394L23.1597 23.7494V23.7479ZM20.7057 26.2034L18.2367 23.7344L16.6467 25.3244L19.1142 27.7934L20.7057 26.2034Z" fill="#669ABD"/>
</svg>
