<svg width="30" height="30" viewBox="0 0 30 30" fill="none" xmlns="http://www.w3.org/2000/svg">
<path fill-rule="evenodd" clip-rule="evenodd" d="M13.685 1.5625H16.315C17.4388 1.5625 18.375 1.5625 19.1175 1.6625C19.9025 1.7675 20.6112 2 21.18 2.56875C21.75 3.13875 21.9825 3.8475 22.0875 4.63125C22.1163 4.84375 22.1375 5.07 22.15 5.3125C22.8875 5.3125 23.51 5.3175 24.0238 5.37C24.615 5.43 25.165 5.56125 25.66 5.89125C26.035 6.1425 26.3575 6.465 26.6088 6.84125C26.9388 7.335 27.07 7.885 27.13 8.47625C27.1875 9.04125 27.1875 9.74 27.1875 10.5763V26.5625H27.5C27.7486 26.5625 27.9871 26.6613 28.1629 26.8371C28.3387 27.0129 28.4375 27.2514 28.4375 27.5C28.4375 27.7486 28.3387 27.9871 28.1629 28.1629C27.9871 28.3387 27.7486 28.4375 27.5 28.4375H2.5C2.25136 28.4375 2.0129 28.3387 1.83709 28.1629C1.66127 27.9871 1.5625 27.7486 1.5625 27.5C1.5625 27.2514 1.66127 27.0129 1.83709 26.8371C2.0129 26.6613 2.25136 26.5625 2.5 26.5625H2.8125V10.5775C2.8125 9.74 2.8125 9.04125 2.87 8.47625C2.93 7.885 3.06125 7.335 3.39125 6.84C3.6425 6.465 3.965 6.1425 4.34125 5.89125C4.835 5.56125 5.385 5.43 5.97625 5.37C6.48875 5.3175 7.1125 5.3125 7.84875 5.3125C7.86375 5.07 7.88375 4.84375 7.91125 4.6325C8.0175 3.8475 8.25 3.13875 8.81875 2.57C9.38875 2 10.0975 1.7675 10.8813 1.6625C11.625 1.5625 12.5625 1.5625 13.685 1.5625ZM7.8125 7.1875C7.08375 7.1875 6.57 7.19375 6.16625 7.235C5.7225 7.28 5.5175 7.36 5.3825 7.45125C5.21182 7.56528 5.06528 7.71182 4.95125 7.8825C4.86 8.0175 4.78 8.2225 4.735 8.66625C4.68875 9.125 4.6875 9.72875 4.6875 10.625V26.5625H7.8125V18.4375H6.875C6.62636 18.4375 6.3879 18.3387 6.21209 18.1629C6.03627 17.9871 5.9375 17.7486 5.9375 17.5C5.9375 17.2514 6.03627 17.0129 6.21209 16.8371C6.3879 16.6613 6.62636 16.5625 6.875 16.5625H7.8125V14.6875H6.875C6.62636 14.6875 6.3879 14.5887 6.21209 14.4129C6.03627 14.2371 5.9375 13.9986 5.9375 13.75C5.9375 13.5014 6.03627 13.2629 6.21209 13.0871C6.3879 12.9113 6.62636 12.8125 6.875 12.8125H7.8125V10.9375H6.875C6.62636 10.9375 6.3879 10.8387 6.21209 10.6629C6.03627 10.4871 5.9375 10.2486 5.9375 10C5.9375 9.75136 6.03627 9.5129 6.21209 9.33709C6.3879 9.16127 6.62636 9.0625 6.875 9.0625H7.8125V7.1875ZM9.6875 26.5625H14.0625V23.75C14.0625 23.5014 14.1613 23.2629 14.3371 23.0871C14.5129 22.9113 14.7514 22.8125 15 22.8125C15.2486 22.8125 15.4871 22.9113 15.6629 23.0871C15.8387 23.2629 15.9375 23.5014 15.9375 23.75V26.5625H20.3125V7.5C20.3125 6.295 20.31 5.485 20.2288 4.88125C20.1513 4.305 20.0175 4.0575 19.8538 3.895C19.6912 3.7325 19.445 3.59875 18.8687 3.52C18.265 3.44 17.455 3.4375 16.25 3.4375H13.75C12.545 3.4375 11.735 3.44 11.1312 3.52125C10.555 3.59875 10.3075 3.7325 10.145 3.89625C9.9825 4.05875 9.84875 4.305 9.77 4.88125C9.69125 5.485 9.6875 6.295 9.6875 7.5V26.5625ZM22.1875 10.9375H23.125C23.3736 10.9375 23.6121 10.8387 23.7879 10.6629C23.9637 10.4871 24.0625 10.2486 24.0625 10C24.0625 9.75136 23.9637 9.5129 23.7879 9.33709C23.6121 9.16127 23.3736 9.0625 23.125 9.0625H22.1875V7.1875C22.9163 7.1875 23.43 7.19375 23.8337 7.235C24.2775 7.28 24.4825 7.36 24.6187 7.45125C24.7887 7.56375 24.935 7.71125 25.0487 7.8825C25.14 8.0175 25.22 8.2225 25.265 8.66625C25.3113 9.125 25.3125 9.72875 25.3125 10.625V26.5625H22.1875V18.4375H23.125C23.3736 18.4375 23.6121 18.3387 23.7879 18.1629C23.9637 17.9871 24.0625 17.7486 24.0625 17.5C24.0625 17.2514 23.9637 17.0129 23.7879 16.8371C23.6121 16.6613 23.3736 16.5625 23.125 16.5625H22.1875V14.6875H23.125C23.3736 14.6875 23.6121 14.5887 23.7879 14.4129C23.9637 14.2371 24.0625 13.9986 24.0625 13.75C24.0625 13.5014 23.9637 13.2629 23.7879 13.0871C23.6121 12.9113 23.3736 12.8125 23.125 12.8125H22.1875V10.9375ZM15 5.3125C15.2486 5.3125 15.4871 5.41127 15.6629 5.58709C15.8387 5.7629 15.9375 6.00136 15.9375 6.25V7.8125H17.5C17.7486 7.8125 17.9871 7.91127 18.1629 8.08709C18.3387 8.2629 18.4375 8.50136 18.4375 8.75C18.4375 8.99864 18.3387 9.2371 18.1629 9.41291C17.9871 9.58873 17.7486 9.6875 17.5 9.6875H15.9375V11.25C15.9375 11.4986 15.8387 11.7371 15.6629 11.9129C15.4871 12.0887 15.2486 12.1875 15 12.1875C14.7514 12.1875 14.5129 12.0887 14.3371 11.9129C14.1613 11.7371 14.0625 11.4986 14.0625 11.25V9.6875H12.5C12.2514 9.6875 12.0129 9.58873 11.8371 9.41291C11.6613 9.2371 11.5625 8.99864 11.5625 8.75C11.5625 8.50136 11.6613 8.2629 11.8371 8.08709C12.0129 7.91127 12.2514 7.8125 12.5 7.8125H14.0625V6.25C14.0625 6.00136 14.1613 5.7629 14.3371 5.58709C14.5129 5.41127 14.7514 5.3125 15 5.3125ZM11.5625 15C11.5625 14.7514 11.6613 14.5129 11.8371 14.3371C12.0129 14.1613 12.2514 14.0625 12.5 14.0625H17.5C17.7486 14.0625 17.9871 14.1613 18.1629 14.3371C18.3387 14.5129 18.4375 14.7514 18.4375 15C18.4375 15.2486 18.3387 15.4871 18.1629 15.6629C17.9871 15.8387 17.7486 15.9375 17.5 15.9375H12.5C12.2514 15.9375 12.0129 15.8387 11.8371 15.6629C11.6613 15.4871 11.5625 15.2486 11.5625 15ZM11.5625 18.75C11.5625 18.5014 11.6613 18.2629 11.8371 18.0871C12.0129 17.9113 12.2514 17.8125 12.5 17.8125H17.5C17.7486 17.8125 17.9871 17.9113 18.1629 18.0871C18.3387 18.2629 18.4375 18.5014 18.4375 18.75C18.4375 18.9986 18.3387 19.2371 18.1629 19.4129C17.9871 19.5887 17.7486 19.6875 17.5 19.6875H12.5C12.2514 19.6875 12.0129 19.5887 11.8371 19.4129C11.6613 19.2371 11.5625 18.9986 11.5625 18.75Z" fill="#669ABD"/>
</svg>
