<svg width="30" height="30" viewBox="0 0 30 30" fill="none" xmlns="http://www.w3.org/2000/svg">
<g clip-path="url(#clip0_43_2830)">
<path d="M19 29H18C18 29.1857 18.0517 29.3678 18.1493 29.5257C18.247 29.6837 18.3867 29.8114 18.5528 29.8944C18.7189 29.9775 18.9048 30.0126 19.0898 29.996C19.2748 29.9793 19.4514 29.9114 19.6 29.8L19 29ZM23 26L23.6 25.2C23.4269 25.0702 23.2164 25 23 25C22.7836 25 22.5731 25.0702 22.4 25.2L23 26ZM27 29L26.4 29.8C26.5486 29.9114 26.7252 29.9793 26.9102 29.996C27.0952 30.0126 27.2811 29.9775 27.4472 29.8944C27.6133 29.8114 27.753 29.6837 27.8507 29.5257C27.9483 29.3678 28 29.1857 28 29H27ZM23 22C21.6739 22 20.4021 21.4732 19.4645 20.5355C18.5268 19.5979 18 18.3261 18 17H16C16 18.8565 16.7375 20.637 18.0503 21.9497C19.363 23.2625 21.1435 24 23 24V22ZM28 17C28 18.3261 27.4732 19.5979 26.5355 20.5355C25.5979 21.4732 24.3261 22 23 22V24C24.8565 24 26.637 23.2625 27.9497 21.9497C29.2625 20.637 30 18.8565 30 17H28ZM23 12C24.3261 12 25.5979 12.5268 26.5355 13.4645C27.4732 14.4022 28 15.6739 28 17H30C30 15.1435 29.2625 13.363 27.9497 12.0503C26.637 10.7375 24.8565 10 23 10V12ZM23 10C21.1435 10 19.363 10.7375 18.0503 12.0503C16.7375 13.363 16 15.1435 16 17H18C18 15.6739 18.5268 14.4022 19.4645 13.4645C20.4021 12.5268 21.6739 12 23 12V10ZM18 21V29H20V21H18ZM19.6 29.8L23.6 26.8L22.4 25.2L18.4 28.2L19.6 29.8ZM22.4 26.8L26.4 29.8L27.6 28.2L23.6 25.2L22.4 26.8ZM28 29V21H26V29H28ZM30 10V3H28V10H30ZM27 0H3V2H27V0ZM0 3V27H2V3H0ZM3 30H16V28H3V30ZM0 27C0 27.7957 0.31607 28.5587 0.87868 29.1213C1.44129 29.6839 2.20435 30 3 30V28C2.73478 28 2.48043 27.8946 2.29289 27.7071C2.10536 27.5196 2 27.2652 2 27H0ZM3 0C2.20435 0 1.44129 0.316071 0.87868 0.87868C0.31607 1.44129 0 2.20435 0 3H2C2 2.73478 2.10536 2.48043 2.29289 2.29289C2.48043 2.10536 2.73478 2 3 2V0ZM30 3C30 2.20435 29.6839 1.44129 29.1213 0.87868C28.5587 0.316071 27.7956 0 27 0V2C27.2652 2 27.5196 2.10536 27.7071 2.29289C27.8946 2.48043 28 2.73478 28 3H30ZM6 10H16V8H6V10ZM6 16H12V14H6V16Z" fill="#669ABD"/>
</g>
<defs>
<clipPath id="clip0_43_2830">
<rect width="30" height="30" fill="white"/>
</clipPath>
</defs>
</svg>
