<svg width="40" height="41" viewBox="0 0 40 41" fill="none" xmlns="http://www.w3.org/2000/svg">
<g clip-path="url(#clip0_43_2868)">
<path d="M20 0.5C14.6969 0.5 9.60625 2.60844 5.85938 6.35781C2.10863 10.1087 0.00103897 15.1956 0 20.5C0 25.8022 2.10938 30.8928 5.85938 34.6422C9.60625 38.3916 14.6969 40.5 20 40.5C25.3031 40.5 30.3937 38.3916 34.1406 34.6422C37.8906 30.8928 40 25.8022 40 20.5C40 15.1978 37.8906 10.1072 34.1406 6.35781C30.3937 2.60844 25.3031 0.5 20 0.5Z" fill="url(#paint0_linear_43_2868)"/>
<path d="M9.0534 20.2888C14.8846 17.7488 18.7721 16.0741 20.7159 15.265C26.2721 12.9547 27.4253 12.5534 28.1784 12.5399C28.344 12.5372 28.7128 12.5781 28.9534 12.7727C29.1534 12.9367 29.2096 13.1586 29.2378 13.3144C29.2628 13.47 29.2971 13.8247 29.269 14.1016C28.969 17.2641 27.6659 24.9384 27.0034 28.4806C26.7253 29.9794 26.1721 30.4819 25.6378 30.5309C24.4753 30.6378 23.594 29.7634 22.469 29.0263C20.7096 27.8722 19.7159 27.1541 18.0065 26.0281C16.0315 24.7269 17.3128 24.0116 18.4378 22.8428C18.7315 22.5369 23.8503 17.8822 23.9471 17.46C23.9596 17.4072 23.9721 17.2103 23.8534 17.1066C23.7378 17.0025 23.5659 17.0381 23.4409 17.0663C23.2628 17.1063 20.4534 18.965 15.0034 22.6422C14.2065 23.1903 13.4846 23.4575 12.8346 23.4434C12.1221 23.4281 10.7471 23.0397 9.72527 22.7078C8.47527 22.3006 7.4784 22.0853 7.5659 21.3938C7.60965 21.0338 8.10652 20.6653 9.0534 20.2888Z" fill="white"/>
</g>
<defs>
<linearGradient id="paint0_linear_43_2868" x1="2000" y1="0.5" x2="2000" y2="4000.5" gradientUnits="userSpaceOnUse">
<stop stop-color="#2AABEE"/>
<stop offset="1" stop-color="#229ED9"/>
</linearGradient>
<clipPath id="clip0_43_2868">
<rect width="40" height="40" fill="white" transform="translate(0 0.5)"/>
</clipPath>
</defs>
</svg>
