<svg width="60" height="61" viewBox="0 0 60 61" fill="none" xmlns="http://www.w3.org/2000/svg">
<path d="M30.0002 5.99072C26.7171 5.99072 23.4662 6.63737 20.4331 7.89373C17.3999 9.1501 14.6439 10.9916 12.3225 13.3131C7.63407 18.0015 5.00015 24.3603 5.00015 30.9907C4.9783 36.7636 6.97713 42.3621 10.6502 46.8157L5.65015 51.8157C5.30326 52.1673 5.06827 52.6137 4.97483 53.0987C4.8814 53.5837 4.9337 54.0854 5.12515 54.5407C5.3328 54.9905 5.66941 55.3685 6.09227 55.6267C6.51513 55.8849 7.00516 56.0116 7.50015 55.9907H30.0002C36.6306 55.9907 42.9894 53.3568 47.6778 48.6684C52.3662 43.98 55.0002 37.6211 55.0002 30.9907C55.0002 24.3603 52.3662 18.0015 47.6778 13.3131C42.9894 8.62464 36.6306 5.99072 30.0002 5.99072ZM30.0002 50.9907H13.5252L15.8502 48.6657C16.3158 48.1973 16.5771 47.5637 16.5771 46.9032C16.5771 46.2428 16.3158 45.6091 15.8502 45.1407C12.5766 41.8708 10.5381 37.5671 10.0819 32.9627C9.62567 28.3583 10.78 23.7382 13.3482 19.8895C15.9164 16.0408 19.7396 13.2016 24.1664 11.8557C28.5933 10.5097 33.3498 10.7402 37.6257 12.508C41.9016 14.2758 45.4323 17.4714 47.6162 21.5505C49.8002 25.6295 50.5023 30.3396 49.603 34.8782C48.7036 39.4169 46.2584 43.5033 42.684 46.4413C39.1096 49.3793 34.6271 50.9871 30.0002 50.9907Z" fill="#669ABD"/>
</svg>
