<svg width="40" height="41" viewBox="0 0 40 41" fill="none" xmlns="http://www.w3.org/2000/svg">
<g clip-path="url(#clip0_43_2861)">
<path d="M20 40.5C8.956 40.5 0 31.544 0 20.5C0 9.456 8.956 0.5 20 0.5C31.044 0.5 40 9.456 40 20.5C40 31.544 31.044 40.5 20 40.5Z" fill="#25D366"/>
<path fill-rule="evenodd" clip-rule="evenodd" d="M29.3557 11.188C26.8757 8.704 23.5717 7.336 20.0557 7.332C12.8117 7.332 6.91171 13.228 6.91171 20.476C6.91171 22.792 7.51571 25.056 8.66771 27.048L6.80371 33.86L13.7717 32.032C15.6917 33.08 17.8517 33.632 20.0517 33.632H20.0557C27.2997 33.632 33.1957 27.736 33.1997 20.488C33.2037 16.976 31.8397 13.672 29.3557 11.188ZM20.0597 31.412H20.0557C18.0957 31.412 16.1717 30.884 14.4957 29.888L14.0957 29.652L9.95971 30.736L11.0637 26.704L10.8037 26.292C9.71171 24.552 9.13171 22.544 9.13171 20.476C9.13571 14.452 14.0357 9.552 20.0637 9.552C22.9837 9.552 25.7237 10.692 27.7877 12.756C29.8517 14.82 30.9877 17.568 30.9837 20.484C30.9837 26.512 26.0797 31.412 20.0597 31.412ZM26.0517 23.228C25.7237 23.064 24.1077 22.268 23.8077 22.16C23.5077 22.052 23.2877 21.996 23.0677 22.324C22.8477 22.652 22.2197 23.392 22.0277 23.612C21.8357 23.832 21.6437 23.86 21.3157 23.696C20.9877 23.532 19.9277 23.184 18.6757 22.064C17.6997 21.192 17.0397 20.116 16.8477 19.788C16.6557 19.46 16.8277 19.28 16.9917 19.116C17.1397 18.968 17.3197 18.732 17.4837 18.54C17.6477 18.348 17.7037 18.212 17.8117 17.992C17.9197 17.772 17.8677 17.58 17.7837 17.416C17.6997 17.252 17.0437 15.636 16.7717 14.976C16.5037 14.336 16.2357 14.424 16.0317 14.412C15.8397 14.404 15.6197 14.4 15.4037 14.4C15.1837 14.4 14.8277 14.484 14.5277 14.812C14.2277 15.14 13.3797 15.936 13.3797 17.552C13.3797 19.168 14.5557 20.732 14.7197 20.948C14.8837 21.168 17.0357 24.484 20.3317 25.908C21.1157 26.248 21.7277 26.448 22.2037 26.6C22.9917 26.852 23.7077 26.816 24.2717 26.732C24.9037 26.636 26.2157 25.936 26.4877 25.172C26.7597 24.404 26.7597 23.748 26.6797 23.612C26.5997 23.476 26.3797 23.396 26.0517 23.228Z" fill="white"/>
</g>
<defs>
<clipPath id="clip0_43_2861">
<rect width="40" height="40" fill="white" transform="translate(0 0.5)"/>
</clipPath>
</defs>
</svg>
